{"glyphs":{"0":{"ha":250,"x_min":0,"x_max":0,"o":"m 0 1069 l 0 107 b 107 0 0 47 47 0 b 214 107 167 0 214 47 l 214 1069 b 107 1176 214 1129 167 1176 b 0 1069 47 1176 0 1129 z m 89 1051 b 107 1069 89 1061 97 1069 b 125 1051 117 1069 125 1061 l 125 125 b 107 107 125 115 117 107 b 89 125 97 107 89 115 z "},"1":{"ha":250,"x_min":0,"x_max":0,"o":"m 0 1176 l 0 1069 l 107 1069 l 107 0 l 214 0 l 214 1176 z "},"2":{"ha":250,"x_min":0,"x_max":0,"o":"m 0 1069 l 0 864 l 89 864 l 89 1051 b 107 1069 89 1061 97 1069 b 125 1051 117 1069 125 1061 l 125 864 b 107 847 125 854 117 847 b 0 740 47 847 0 799 l 0 0 l 214 0 l 214 107 l 89 107 l 89 740 b 107 757 89 750 97 757 b 214 864 167 757 214 806 l 214 1069 b 107 1176 214 1129 167 1176 b 0 1069 47 1176 0 1129 z "},"3":{"ha":250,"x_min":0,"x_max":0,"o":"m 107 0 b 214 107 167 0 214 47 l 214 740 b 194 803 214 763 207 785 b 214 864 207 819 214 842 l 214 1069 b 107 1176 214 1129 167 1176 b 0 1069 47 1176 0 1129 l 0 890 l 89 890 l 89 1051 b 107 1069 89 1061 97 1069 b 125 1051 117 1069 125 1061 l 125 864 b 107 847 125 854 117 847 l 89 847 l 89 757 l 108 757 b 125 740 117 757 125 750 l 125 125 b 107 107 125 115 117 107 b 89 125 97 107 89 115 l 89 714 l 0 714 l 0 107 b 107 0 0 47 47 0 z "},"4":{"ha":250,"x_min":0,"x_max":0,"o":"m 0 750 l 107 750 l 107 0 l 214 0 l 214 1176 l 125 1176 l 125 856 l 89 856 l 89 1176 l 0 1176 z "},"5":{"ha":250,"x_min":0,"x_max":0,"o":"m 0 1176 l 0 864 b 107 757 0 806 47 757 b 125 740 117 757 125 750 l 125 125 b 107 107 125 115 117 107 b 89 125 97 107 89 115 l 89 740 l 0 740 l 0 107 b 107 0 0 47 47 0 b 214 107 167 0 214 47 l 214 740 b 107 847 214 799 167 847 b 89 864 97 847 89 854 l 89 1069 l 214 1069 l 214 1176 z "},"6":{"ha":250,"x_min":0,"x_max":0,"o":"m 0 107 b 107 0 0 47 47 0 b 214 107 167 0 214 47 l 214 696 b 107 803 214 754 167 803 b 89 819 97 803 89 810 l 89 1051 b 107 1069 89 1061 97 1069 b 125 1051 117 1069 125 1061 l 125 819 l 214 819 l 214 1069 b 107 1176 214 1129 167 1176 b 0 1069 47 1176 0 1129 z m 89 125 l 89 678 b 107 696 89 688 97 696 b 125 678 117 696 125 688 l 125 125 b 107 107 125 115 117 107 b 89 125 97 107 89 115 z "},"7":{"ha":250,"x_min":0,"x_max":0,"o":"m 107 0 l 214 1069 l 214 1176 l 0 1176 l 0 1069 l 107 1069 l 0 0 z "},"8":{"ha":250,"x_min":0,"x_max":0,"o":"m 0 107 b 107 0 0 47 47 0 b 214 107 167 0 214 47 l 214 740 b 194 803 214 763 207 785 b 214 864 207 819 214 842 l 214 1069 b 107 1176 214 1129 167 1176 b 0 1069 47 1176 0 1129 l 0 864 b 19 803 0 842 7 819 b 0 740 7 785 0 763 z m 107 757 b 125 740 117 757 125 750 l 125 125 b 107 107 125 115 117 107 b 89 125 97 107 89 115 l 89 740 b 107 757 89 750 97 757 z m 89 864 l 89 1051 b 107 1069 89 1061 97 1069 b 125 1051 117 1069 125 1061 l 125 864 b 107 847 125 854 117 847 b 89 864 97 847 89 854 z "},"9":{"ha":250,"x_min":0,"x_max":0,"o":"m 0 864 b 107 749 0 806 47 749 b 125 731 117 749 125 740 l 125 125 b 107 107 125 115 117 107 b 89 125 97 107 89 115 l 89 731 l 0 731 l 0 107 b 107 0 0 47 47 0 b 214 107 167 0 214 47 l 214 1069 b 107 1176 214 1129 167 1176 b 0 1069 47 1176 0 1129 z m 89 1051 b 107 1069 89 1061 97 1069 b 125 1051 117 1069 125 1061 l 125 864 b 107 847 125 854 117 847 b 89 864 97 847 89 854 z "},"×":{"ha":347,"x_min":0,"x_max":0,"o":""},"Þ":{"ha":347,"x_min":0,"x_max":0,"o":""},"ß":{"ha":347,"x_min":0,"x_max":0,"o":""},"ð":{"ha":347,"x_min":0,"x_max":0,"o":""},"÷":{"ha":347,"x_min":0,"x_max":0,"o":""},"þ":{"ha":347,"x_min":0,"x_max":0,"o":""},"‚":{"ha":347,"x_min":0,"x_max":0,"o":""},"‛":{"ha":347,"x_min":0,"x_max":0,"o":""},"\u0000":{"ha":0,"x_min":0,"x_max":0,"o":""},"\r":{"ha":347,"x_min":0,"x_max":0,"o":""}," ":{"ha":250,"x_min":0,"x_max":0,"o":""},"x":{"ha":250,"x_min":0,"x_max":0,"o":"m 0 0 l 89 0 l 89 515 b 103 533 89 524 94 532 b 125 517 114 536 125 528 l 125 0 l 214 0 l 214 535 b 161 588 214 564 190 588 b 214 640 190 588 214 611 l 214 961 l 125 961 l 125 658 b 111 642 125 650 118 643 b 89 658 100 639 89 647 l 89 961 l 0 961 l 0 640 b 53 588 0 611 24 588 b 0 535 24 588 0 564 z "},"p":{"ha":250,"x_min":0,"x_max":0,"o":"m 0 0 l 0 -212 l 89 -212 l 89 0 l 107 0 b 214 107 165 0 214 47 l 214 856 b 111 963 214 914 168 960 l 0 963 z m 107 865 b 125 847 117 865 125 857 l 125 124 b 110 107 125 115 118 108 l 89 107 l 89 865 z "},"D":{"ha":250,"x_min":0,"x_max":0,"o":"m 0 0 l 107 0 b 214 107 165 0 214 47 l 214 1069 b 107 1176 214 1128 165 1176 l 0 1176 z m 107 1069 b 125 1051 117 1069 125 1061 l 125 125 b 107 107 125 115 117 107 l 89 107 l 89 1069 z "},"A":{"ha":250,"x_min":0,"x_max":0,"o":"m 89 0 l 89 749 l 125 749 l 125 0 l 214 0 l 214 1069 b 107 1176 214 1128 165 1176 b 0 1069 49 1176 0 1128 l 0 0 z m 89 1051 b 107 1069 89 1061 97 1069 b 125 1051 117 1069 125 1061 l 125 856 l 89 856 z "},"B":{"ha":250,"x_min":0,"x_max":0,"o":"m 0 1176 l 0 0 l 107 0 b 214 107 165 0 214 47 l 214 754 b 161 801 211 781 189 801 b 214 854 190 801 214 825 l 214 1069 b 107 1176 214 1128 165 1176 z m 89 107 l 89 749 l 107 749 b 125 731 117 749 125 740 l 125 125 b 107 107 125 115 117 107 z m 107 1069 b 125 1051 117 1069 125 1061 l 125 872 b 107 856 125 863 117 856 l 89 856 l 89 1069 z "},"C":{"ha":250,"x_min":0,"x_max":0,"o":"m 0 1069 l 0 107 b 107 0 0 47 47 0 b 214 107 165 0 214 47 l 214 785 l 125 785 l 125 125 b 107 107 125 115 117 107 b 89 125 97 107 89 115 l 89 1051 b 107 1069 89 1061 97 1069 b 125 1051 117 1069 125 1061 l 125 819 l 214 819 l 214 1069 b 107 1176 214 1128 165 1176 b 0 1069 47 1176 0 1128 z "},"E":{"ha":250,"x_min":0,"x_max":0,"o":"m 0 0 l 214 0 l 214 107 l 107 107 l 107 749 l 214 749 l 214 856 l 107 856 l 107 1069 l 214 1069 l 214 1176 l 0 1176 z "},"F":{"ha":250,"x_min":0,"x_max":0,"o":"m 0 0 l 107 0 l 107 749 l 214 749 l 214 856 l 107 856 l 107 1069 l 214 1069 l 214 1176 l 0 1176 z "},"G":{"ha":250,"x_min":0,"x_max":0,"o":"m 0 1069 l 0 107 b 107 0 0 47 47 0 b 214 107 165 0 214 47 l 214 785 l 107 785 l 107 731 l 125 731 l 125 125 b 107 107 125 115 117 107 b 89 125 97 107 89 115 l 89 1051 b 107 1069 89 1061 97 1069 b 125 1051 117 1069 125 1061 l 125 819 l 214 819 l 214 1069 b 107 1176 214 1128 165 1176 b 0 1069 47 1176 0 1128 z "},"H":{"ha":250,"x_min":0,"x_max":0,"o":"m 89 0 l 89 749 l 125 749 l 125 0 l 214 0 l 214 1176 l 125 1176 l 125 856 l 89 856 l 89 1176 l 0 1176 l 0 0 z "},"I":{"ha":143,"x_min":0,"x_max":0,"o":"m 107 1176 l 0 1176 l 0 0 l 107 0 z "},"J":{"ha":250,"x_min":0,"x_max":0,"o":"m 0 1069 l 125 1069 l 125 125 b 107 107 125 115 117 107 b 89 125 97 107 89 115 l 89 801 l 0 801 l 0 107 b 107 0 0 47 47 0 b 214 107 165 0 214 47 l 214 1176 l 0 1176 z "},"K":{"ha":250,"x_min":0,"x_max":0,"o":"m 0 0 l 89 0 l 89 731 b 107 749 89 740 97 749 b 125 731 117 749 125 740 l 125 0 l 214 0 l 214 756 b 161 803 211 782 189 803 b 214 854 190 803 214 825 l 214 1176 l 125 1176 l 125 872 b 107 856 125 863 117 856 b 89 872 97 856 89 863 l 89 1176 l 0 1176 z "},"L":{"ha":250,"x_min":0,"x_max":0,"o":"m 0 0 l 214 0 l 214 107 l 107 107 l 107 1176 l 0 1176 z "},"M":{"ha":358,"x_min":0,"x_max":0,"o":"m 89 0 l 89 1069 l 125 1069 l 125 0 l 199 0 l 199 1069 l 215 1069 b 233 1051 225 1069 233 1061 l 233 0 l 322 0 l 322 1069 b 215 1176 322 1128 275 1176 l 0 1176 l 0 0 z "},"N":{"ha":250,"x_min":0,"x_max":0,"o":"m 0 1176 l 0 0 l 89 0 l 89 1069 l 107 1069 b 125 1051 117 1069 125 1061 l 125 0 l 214 0 l 214 1069 b 107 1176 214 1128 165 1176 z "},"O":{"ha":250,"x_min":0,"x_max":0,"o":"m 0 1069 l 0 107 b 107 0 0 47 47 0 b 214 107 165 0 214 47 l 214 1069 b 107 1176 214 1128 165 1176 b 0 1069 47 1176 0 1128 z m 89 1051 b 107 1069 89 1061 97 1069 b 125 1051 117 1069 125 1061 l 125 125 b 107 107 125 115 117 107 b 89 125 97 107 89 115 z "},"P":{"ha":250,"x_min":0,"x_max":0,"o":"m 0 0 l 89 0 l 89 742 b 107 740 94 740 101 740 b 214 847 165 740 214 788 l 214 1069 b 107 1176 214 1128 165 1176 l 0 1176 z m 89 1069 l 107 1069 b 125 1051 117 1069 125 1061 l 125 864 b 107 847 125 854 117 847 l 89 847 z "},"Q":{"ha":250,"x_min":0,"x_max":0,"o":"m 57 14 l 44 0 l 150 -106 l 214 -43 l 157 14 b 214 108 190 32 214 67 l 214 1069 b 107 1176 214 1128 165 1176 b 0 1069 47 1176 0 1128 l 0 108 b 57 14 0 67 24 32 z m 107 1069 b 124 1051 117 1069 124 1061 l 124 125 b 107 108 124 115 117 108 b 89 125 97 108 89 115 l 89 1051 b 107 1069 89 1061 97 1069 z "},"R":{"ha":250,"x_min":0,"x_max":0,"o":"m 0 0 l 89 0 l 89 749 l 107 749 b 125 731 117 749 125 740 l 125 0 l 214 0 l 214 750 b 161 803 214 779 190 803 b 214 854 190 803 214 826 l 214 1069 b 107 1176 214 1128 165 1176 l 0 1176 z m 89 1068 l 107 1068 b 125 1051 117 1068 125 1061 l 125 872 b 107 856 125 863 117 856 l 89 856 z "},"S":{"ha":250,"x_min":0,"x_max":0,"o":"m 0 864 b 107 757 0 806 47 757 b 125 739 117 757 125 749 l 125 125 b 107 107 125 115 117 107 b 89 125 97 107 89 115 l 89 739 l 0 739 l 0 107 b 107 0 0 47 47 0 b 214 107 165 0 214 47 l 214 739 b 107 846 214 799 165 846 b 89 864 97 846 89 854 l 89 1051 b 107 1069 89 1061 97 1069 b 125 1051 117 1069 125 1061 l 125 864 l 214 864 l 214 1069 b 107 1176 214 1128 165 1176 b 0 1069 47 1176 0 1128 z "},"T":{"ha":250,"x_min":0,"x_max":0,"o":"m 0 1069 l 63 1069 l 63 0 l 151 0 l 151 1069 l 214 1069 l 214 1176 l 0 1176 z "},"U":{"ha":250,"x_min":0,"x_max":0,"o":"m 0 107 b 107 0 0 47 47 0 b 214 107 165 0 214 47 l 214 1176 l 125 1176 l 125 125 b 107 107 125 115 117 107 b 89 125 97 107 89 115 l 89 1176 l 0 1176 z "},"V":{"ha":250,"x_min":0,"x_max":0,"o":"m 0 1176 l 0 0 l 107 0 b 214 107 165 0 214 47 l 214 1176 l 125 1176 l 125 125 b 107 107 125 115 117 107 l 89 107 l 89 1176 z "},"W":{"ha":358,"x_min":0,"x_max":0,"o":"m 0 1176 l 0 0 l 215 0 b 322 107 275 0 322 47 l 322 1176 l 233 1176 l 233 125 b 215 107 233 115 225 107 l 199 107 l 199 1176 l 125 1176 l 125 107 l 89 107 l 89 1176 z "},"X":{"ha":250,"x_min":0,"x_max":0,"o":"m 0 0 l 89 0 l 89 731 b 103 747 89 739 94 746 b 125 731 114 750 125 742 l 125 0 l 214 0 l 214 749 b 161 801 214 778 190 801 b 214 854 190 801 214 825 l 214 1176 l 125 1176 l 125 874 b 111 856 125 865 119 857 b 89 872 100 853 89 863 l 89 1176 l 0 1176 l 0 854 b 53 801 0 825 24 801 b 0 749 24 801 0 778 z "},"Y":{"ha":250,"x_min":0,"x_max":0,"o":"m 0 1176 l 0 846 b 63 749 0 803 25 765 l 63 0 l 151 0 l 151 749 b 214 846 189 765 214 803 l 214 1176 l 125 1176 l 125 872 b 107 856 125 863 117 856 b 89 872 97 856 89 863 l 89 1176 z "},"Z":{"ha":250,"x_min":0,"x_max":0,"o":"m 0 107 l 0 0 l 214 0 l 214 721 l 125 721 l 125 107 l 89 107 l 89 721 l 214 846 l 214 1176 l 0 1176 l 0 883 l 89 883 l 89 1069 l 125 1069 l 125 882 l 0 758 z "},".":{"ha":142,"x_min":0,"x_max":0,"o":"m 106 106 l 0 106 l 0 0 l 106 0 z "},"a":{"ha":250,"x_min":0,"x_max":0,"o":"m 0 106 b 106 0 0 47 47 0 l 214 0 l 214 813 b 96 961 214 918 160 968 b 0 853 42 956 0 908 l 0 642 l 89 642 l 89 838 b 103 854 89 846 94 853 b 125 838 114 857 125 849 l 125 599 l 106 599 b 0 492 47 599 0 551 z m 89 475 b 106 492 89 483 97 492 l 125 492 l 125 107 l 107 107 b 89 125 97 107 89 115 z "},"b":{"ha":250,"x_min":0,"x_max":0,"o":"m 0 1175 l 0 0 l 107 0 b 214 107 165 0 214 47 l 213 856 b 107 961 213 914 165 961 l 89 961 l 89 1175 z m 89 864 l 107 864 b 124 847 117 864 124 857 l 124 124 b 110 107 124 115 118 108 l 89 107 z "},"c":{"ha":250,"x_min":0,"x_max":0,"o":"m 0 854 l 0 107 b 107 0 0 47 47 0 b 214 107 165 0 214 47 l 214 571 l 125 571 l 125 125 b 107 107 125 115 117 107 b 89 125 97 107 89 115 l 89 838 b 107 854 89 847 97 854 b 125 838 117 854 125 847 l 125 606 l 214 606 l 214 854 b 107 961 214 914 165 961 b 0 854 47 961 0 914 z "},"d":{"ha":250,"x_min":0,"x_max":0,"o":"m 0 107 b 107 0 0 47 47 0 l 214 0 l 214 1175 l 124 1175 l 124 960 l 106 960 b 0 854 47 960 0 913 z m 89 846 b 107 864 89 856 97 864 l 124 864 l 124 107 l 104 107 b 89 124 96 108 89 115 z "},"e":{"ha":250,"x_min":0,"x_max":0,"o":"m 0 854 l 0 150 b 117 0 0 44 54 -6 b 214 110 172 6 214 54 l 214 499 l 125 499 l 125 125 b 111 107 125 117 118 110 b 89 125 100 106 89 114 l 89 535 l 214 535 l 214 856 b 108 963 214 915 167 963 b 0 854 49 963 0 914 z m 107 856 b 125 838 117 856 125 847 l 125 642 l 89 642 l 89 838 b 107 856 89 847 97 856 z "},"f":{"ha":250,"x_min":0,"x_max":0,"o":"m 0 0 l 89 0 l 89 533 l 214 533 l 214 640 l 89 640 l 89 1050 b 107 1068 89 1060 97 1068 b 124 1050 117 1068 124 1060 l 124 889 l 214 889 l 214 1068 b 107 1175 214 1126 165 1175 b 0 1068 47 1175 0 1126 z "},"g":{"ha":250,"x_min":0,"x_max":0,"o":"m 0 -33 l 0 -106 b 107 -212 0 -165 47 -212 b 214 -106 165 -212 214 -165 l 214 963 l 103 963 b 0 856 46 960 0 914 l 0 108 b 107 1 0 49 47 1 l 124 1 l 124 -87 b 107 -106 124 -97 117 -106 b 89 -87 97 -106 89 -97 l 89 -33 z m 89 849 b 107 865 89 858 97 865 l 124 865 l 124 108 l 104 108 b 89 125 96 110 89 117 z "},"h":{"ha":250,"x_min":0,"x_max":0,"o":"m 0 0 l 89 0 l 89 864 l 107 864 b 124 847 117 864 124 856 l 124 0 l 214 0 l 214 186 l 213 854 b 107 961 213 913 165 961 l 89 961 l 89 1175 l 0 1175 z "},"i":{"ha":143,"x_min":0,"x_max":0,"o":"m 107 0 l 107 961 l 0 961 l 0 0 z m 0 1175 l 0 1068 l 107 1068 l 107 1175 z "},"j":{"ha":250,"x_min":0,"x_max":0,"o":"m 0 -106 b 107 -212 0 -165 47 -212 b 214 -106 165 -212 214 -165 l 214 963 l 125 963 l 125 -87 b 107 -106 125 -97 117 -106 b 89 -87 97 -106 89 -97 l 89 589 l 0 589 z m 125 1176 l 125 1069 l 214 1069 l 214 1176 z "},"k":{"ha":250,"x_min":0,"x_max":0,"o":"m 89 0 l 89 517 b 107 533 89 526 97 533 b 124 517 117 533 124 526 l 124 0 l 214 0 l 214 540 l 213 540 b 161 588 210 567 188 588 b 214 640 190 588 214 611 l 214 961 l 124 961 l 124 658 b 107 640 124 649 117 640 b 89 658 97 640 89 649 l 89 1175 l 0 1175 l 0 0 z "},"l":{"ha":143,"x_min":0,"x_max":0,"o":"m 0 0 l 107 0 l 107 1175 l 0 1175 z "},"m":{"ha":358,"x_min":0,"x_max":0,"o":"m 0 0 l 89 0 l 89 854 l 125 854 l 125 0 l 199 0 l 199 854 l 215 854 b 233 838 225 854 233 847 l 233 0 l 322 0 l 322 854 b 215 961 322 914 275 961 l 0 961 z "},"n":{"ha":250,"x_min":0,"x_max":0,"o":"m 0 961 l 0 0 l 89 0 l 89 854 l 107 854 b 125 836 117 854 125 846 l 125 0 l 214 0 l 214 854 b 107 961 214 914 165 961 z "},"o":{"ha":250,"x_min":0,"x_max":0,"o":"m 0 854 l 0 107 b 107 0 0 47 47 0 b 214 107 165 0 214 47 l 214 854 b 107 961 214 914 165 961 b 0 854 47 961 0 914 z m 89 836 b 107 854 89 846 97 854 b 125 836 117 854 125 846 l 125 125 b 107 107 125 115 117 107 b 89 125 97 107 89 115 z "},"q":{"ha":250,"x_min":0,"x_max":0,"o":"m 0 107 b 107 0 0 47 49 0 l 125 0 l 125 -212 l 214 -212 l 214 963 l 103 963 b 0 856 46 960 0 914 z m 89 847 b 107 865 89 857 97 865 l 125 865 l 125 107 l 104 107 b 89 124 96 108 89 115 z "},"r":{"ha":250,"x_min":0,"x_max":0,"o":"m 0 0 l 89 0 l 89 854 l 107 854 b 125 838 117 854 125 847 l 125 642 l 214 642 l 214 854 b 107 961 214 914 165 961 l 0 961 z "},"s":{"ha":250,"x_min":0,"x_max":0,"o":"m 0 650 b 107 543 0 590 47 543 b 125 525 117 543 125 535 l 125 125 b 107 107 125 115 117 107 b 89 125 97 107 89 115 l 89 525 l 0 525 l 0 107 b 107 0 0 47 47 0 b 214 107 165 0 214 47 l 214 525 b 107 632 214 585 165 632 b 89 650 97 632 89 640 l 89 838 b 107 856 89 847 97 856 b 125 838 117 856 125 847 l 125 650 l 214 650 l 214 856 b 107 963 214 914 165 963 b 0 856 47 963 0 914 z "},"t":{"ha":250,"x_min":0,"x_max":0,"o":"m 0 1175 l 0 107 b 107 0 0 47 47 0 b 214 107 167 0 214 47 l 214 818 l 125 818 l 125 125 b 107 107 125 115 117 107 b 89 125 97 107 89 115 l 89 853 l 214 853 l 214 960 l 89 960 l 89 1175 z "},"u":{"ha":250,"x_min":0,"x_max":0,"o":"m 0 107 b 107 0 0 47 47 0 b 214 107 165 0 214 47 l 214 961 l 125 961 l 125 125 b 107 107 125 115 117 107 b 89 125 97 107 89 115 l 89 961 l 0 961 z "},"v":{"ha":250,"x_min":0,"x_max":0,"o":"m 0 963 l 0 0 l 107 0 b 214 107 165 0 214 47 l 214 963 l 125 963 l 125 125 b 107 107 125 115 117 107 l 89 107 l 89 963 z "},"w":{"ha":358,"x_min":0,"x_max":0,"o":"m 0 961 l 0 0 l 215 0 b 322 107 275 0 322 47 l 322 961 l 233 961 l 233 125 b 215 107 233 115 225 107 l 199 107 l 199 961 l 125 961 l 125 107 l 89 107 l 89 961 z "},"y":{"ha":250,"x_min":0,"x_max":0,"o":"m 107 -212 b 214 -106 165 -212 214 -165 l 214 961 l 124 961 l 124 108 l 104 108 b 89 125 96 110 89 117 l 89 963 l 0 963 l 0 107 b 107 1 0 49 47 1 l 124 1 l 124 -87 b 107 -106 124 -97 117 -106 b 89 -87 97 -106 89 -97 l 89 -33 l 0 -33 l 0 -106 b 107 -212 0 -165 47 -212 z "},"z":{"ha":250,"x_min":0,"x_max":0,"o":"m 0 107 l 0 0 l 214 0 l 214 507 l 125 507 l 125 107 l 89 107 l 89 507 l 214 631 l 214 961 l 0 961 l 0 668 l 89 668 l 89 854 l 125 854 l 125 668 l 0 543 z "},",":{"ha":172,"x_min":0,"x_max":0,"o":"m 136 81 l 47 81 l 3 -97 l 92 -97 z "},"-":{"ha":250,"x_min":0,"x_max":0,"o":"m 214 633 l 0 633 l 0 544 l 214 544 z "},"+":{"ha":306,"x_min":0,"x_max":0,"o":"m 0 629 l 0 540 l 90 540 l 90 450 l 179 450 l 179 540 l 269 540 l 269 629 l 179 629 l 179 719 l 90 719 l 90 629 z "},"À":{"ha":250,"x_min":0,"x_max":0,"o":"m 0 0 l 89 0 l 89 749 l 125 749 l 125 0 l 214 0 l 214 1069 b 107 1176 214 1128 165 1176 b 0 1069 49 1176 0 1128 z m 89 1051 b 107 1069 89 1061 97 1069 b 125 1051 117 1069 125 1061 l 125 856 l 89 856 z m 54 1301 l 129 1225 l 160 1257 l 85 1332 z "},"Á":{"ha":250,"x_min":0,"x_max":0,"o":"m 89 0 l 89 749 l 125 749 l 125 0 l 214 0 l 214 1069 b 107 1176 214 1128 165 1176 b 0 1069 49 1176 0 1128 l 0 0 z m 89 1051 b 107 1069 89 1061 97 1069 b 125 1051 117 1069 125 1061 l 125 856 l 89 856 z m 54 1257 l 85 1225 l 160 1301 l 129 1332 z "},"Â":{"ha":250,"x_min":0,"x_max":0,"o":"m 0 0 l 89 0 l 89 749 l 125 749 l 125 0 l 214 0 l 214 1069 b 107 1176 214 1128 165 1176 b 0 1069 49 1176 0 1128 z m 69 1225 l 81 1225 l 107 1271 l 133 1225 l 183 1225 l 126 1326 l 88 1326 l 31 1225 z m 89 1051 b 107 1069 89 1061 97 1069 b 125 1051 117 1069 125 1061 l 125 856 l 89 856 z "},"Ã":{"ha":250,"x_min":0,"x_max":0,"o":"m 89 0 l 89 749 l 125 749 l 125 0 l 214 0 l 214 1069 b 107 1176 214 1128 165 1176 b 0 1069 49 1176 0 1128 l 0 0 z m 57 1286 l 13 1286 b 74 1225 13 1254 42 1225 b 113 1239 88 1225 101 1231 b 125 1253 118 1244 122 1249 b 135 1261 131 1258 132 1260 b 149 1260 139 1263 144 1263 b 157 1244 154 1256 157 1250 l 201 1244 b 172 1296 201 1265 190 1285 b 122 1303 157 1306 139 1308 b 92 1281 107 1297 99 1288 b 85 1274 89 1278 88 1275 b 65 1272 79 1268 71 1268 b 57 1286 60 1275 57 1281 z m 89 1051 b 107 1069 89 1061 97 1069 b 125 1051 117 1069 125 1061 l 125 856 l 89 856 z "},"Ä":{"ha":250,"x_min":0,"x_max":0,"o":"m 0 0 l 89 0 l 89 749 l 125 749 l 125 0 l 214 0 l 214 1069 b 107 1176 214 1129 165 1176 b 0 1069 49 1176 0 1129 z m 89 856 l 89 1051 b 107 1069 89 1061 97 1069 b 125 1051 117 1069 125 1061 l 125 856 z m 181 1256 l 181 1311 l 125 1311 l 125 1256 z m 89 1256 l 89 1311 l 33 1311 l 33 1256 z "},"Å":{"ha":250,"x_min":0,"x_max":0,"o":"m 0 1069 l 0 0 l 89 0 l 89 749 l 125 749 l 125 0 l 214 0 l 214 1069 b 144 1169 214 1115 185 1154 b 168 1218 158 1181 168 1199 b 107 1279 168 1251 140 1279 b 46 1218 74 1279 46 1251 b 69 1169 46 1199 56 1181 b 0 1069 29 1154 0 1115 z m 107 1069 b 125 1051 117 1069 125 1061 l 125 856 l 89 856 l 89 1051 b 107 1069 89 1061 97 1069 z m 107 1236 b 124 1218 117 1236 124 1228 b 107 1201 124 1208 117 1201 b 90 1218 97 1201 90 1208 b 107 1236 90 1228 97 1236 z "},"Æ":{"ha":357,"x_min":0,"x_max":0,"o":"m 0 0 l 89 0 l 89 749 l 125 749 l 125 0 l 321 0 l 321 107 l 214 107 l 214 749 l 321 749 l 321 856 l 214 856 l 214 1069 l 321 1069 l 321 1176 l 107 1176 b 0 1069 49 1176 0 1128 z m 89 856 l 89 1051 b 107 1069 89 1061 97 1069 l 125 1069 l 125 856 z "},"Ç":{"ha":250,"x_min":0,"x_max":0,"o":"m 0 107 b 107 0 0 47 47 0 l 114 0 b 124 -15 119 -3 124 -8 b 106 -33 124 -25 115 -33 b 89 -15 97 -33 89 -25 l 47 -29 b 106 -76 53 -57 78 -76 b 167 -15 139 -76 167 -49 b 160 14 167 -6 164 4 b 214 107 192 32 214 67 l 214 785 l 125 785 l 125 124 b 107 107 125 114 117 107 b 89 124 97 107 89 114 l 89 1051 b 107 1068 89 1061 97 1068 b 125 1051 117 1068 125 1061 l 125 819 l 214 819 l 214 1069 b 107 1176 214 1128 165 1176 b 0 1069 47 1176 0 1128 z "},"Ð":{"ha":304,"x_min":0,"x_max":0,"o":"m 0 824 l 0 781 l 54 781 l 54 0 l 161 0 b 268 107 219 0 268 47 l 268 1069 b 161 1176 268 1128 219 1176 l 54 1176 l 54 824 z m 161 1069 b 178 1051 171 1069 178 1061 l 178 125 b 161 107 178 115 171 107 l 143 107 l 143 781 l 161 781 l 161 824 l 143 824 l 143 1069 z "},"Đ":{"ha":250,"x_min":0,"x_max":0,"o":"m 0 824 l 0 781 l 54 781 l 54 0 l 161 0 b 268 107 219 0 268 47 l 268 1069 b 161 1176 268 1128 219 1176 l 54 1176 l 54 824 z m 161 1069 b 178 1051 171 1069 178 1061 l 178 125 b 161 107 178 115 171 107 l 143 107 l 143 781 l 161 781 l 161 824 l 143 824 l 143 1069 z "},"È":{"ha":250,"x_min":0,"x_max":0,"o":"m 0 0 l 214 0 l 214 107 l 107 107 l 107 749 l 214 749 l 214 856 l 107 856 l 107 1069 l 214 1069 l 214 1176 l 0 1176 z m 129 1228 l 160 1258 l 85 1335 l 54 1304 z "},"É":{"ha":250,"x_min":0,"x_max":0,"o":"m 0 0 l 214 0 l 214 107 l 107 107 l 107 749 l 214 749 l 214 856 l 107 856 l 107 1069 l 214 1069 l 214 1176 l 0 1176 z m 54 1258 l 85 1228 l 160 1304 l 129 1335 z "},"*":{"ha":303,"x_min":0,"x_max":0,"o":"m 0 1071 l 0 1015 l 65 1015 l 19 968 l 58 929 l 106 975 l 106 910 l 161 910 l 161 975 l 207 929 l 247 968 l 200 1015 l 267 1015 l 267 1071 l 200 1071 l 247 1117 l 207 1157 l 161 1110 l 161 1176 l 106 1176 l 106 1110 l 58 1157 l 19 1117 l 65 1071 z "},"^":{"ha":289,"x_min":0,"x_max":0,"o":"m 64 985 l 126 1049 l 190 985 l 253 1049 l 126 1175 l 0 1049 z "},"˜":{"ha":424,"x_min":0,"x_max":0,"o":"m 125 506 b 206 535 154 506 183 515 b 232 561 217 543 225 553 b 251 579 242 572 246 576 b 281 575 261 582 272 581 b 297 544 292 568 297 557 l 388 544 b 261 671 388 615 331 671 b 163 619 218 671 189 653 b 149 604 157 613 153 607 b 126 596 143 599 135 596 b 107 601 119 596 113 597 b 90 631 96 607 90 619 l 0 632 b 125 506 0 563 56 506 z "},"/":{"ha":250,"x_min":0,"x_max":0,"o":"m 214 1176 l 107 1176 l 0 0 l 107 0 z "},"\\":{"ha":250,"x_min":0,"x_max":0,"o":"m 107 0 l 214 0 l 107 1176 l 0 1176 z "},":":{"ha":125,"x_min":0,"x_max":0,"o":"m 89 635 l 89 725 l 0 725 l 0 635 z m 0 528 l 0 439 l 89 439 l 89 528 z "},";":{"ha":171,"x_min":0,"x_max":0,"o":"m 135 724 l 44 724 l 44 635 l 135 635 z m 135 528 l 44 528 l 0 349 l 89 349 z "},"<":{"ha":226,"x_min":0,"x_max":0,"o":"m 126 461 l 190 525 l 126 588 l 190 651 l 126 714 l 0 588 z "},"=":{"ha":250,"x_min":0,"x_max":0,"o":"m 214 631 l 214 707 l 0 707 l 0 631 z m 0 540 l 0 465 l 214 465 l 214 540 z "},">":{"ha":226,"x_min":0,"x_max":0,"o":"m 0 524 l 64 460 l 190 586 l 64 713 l 0 650 l 64 586 z "},"!":{"ha":143,"x_min":0,"x_max":0,"o":"m 107 214 l 107 1176 l 0 1176 l 0 214 z m 107 0 l 107 107 l 0 107 l 0 0 z "},"?":{"ha":250,"x_min":0,"x_max":0,"o":"m 0 214 l 89 214 l 89 740 b 107 757 89 750 97 757 b 214 864 167 757 214 806 l 214 1069 b 107 1176 214 1129 167 1176 b 0 1069 47 1176 0 1129 l 0 864 l 89 864 l 89 1051 b 107 1069 89 1061 97 1069 b 125 1051 117 1069 125 1061 l 125 864 b 107 847 125 854 117 847 b 0 740 47 847 0 799 z m 89 0 l 89 107 l 1 107 l 1 0 z "},"'":{"ha":125,"x_min":0,"x_max":0,"o":"m 89 1176 l 0 1176 l 0 963 l 89 963 z "},"\"":{"ha":250,"x_min":0,"x_max":0,"o":"m 125 963 l 214 963 l 214 1176 l 125 1176 z m 0 963 l 89 963 l 89 1176 l 0 1176 z "},"#":{"ha":376,"x_min":0,"x_max":0,"o":"m 89 0 l 160 660 l 183 660 l 125 0 l 214 0 l 272 660 l 321 660 l 321 749 l 281 749 l 290 856 l 340 856 l 340 944 l 299 944 l 319 1176 l 229 1176 l 208 944 l 189 944 l 214 1176 l 124 1176 l 100 944 l 19 944 l 19 856 l 90 856 l 79 749 l 0 749 l 0 660 l 69 660 l 0 0 z m 179 856 l 201 856 l 192 749 l 168 749 z "},"@":{"ha":499,"x_min":0,"x_max":0,"o":"m 107 0 l 356 0 l 356 107 l 143 107 b 89 161 114 107 89 131 l 89 1010 l 90 1010 b 89 1015 90 1011 89 1014 b 143 1069 89 1046 114 1069 l 374 1069 l 374 267 b 356 249 374 257 365 249 b 339 267 346 249 339 257 l 339 1035 l 232 1035 b 125 928 172 1035 125 986 l 125 249 b 232 142 125 190 172 142 b 293 163 254 142 276 150 b 356 142 311 150 332 142 b 463 249 415 142 463 190 l 463 1069 b 356 1176 463 1129 415 1176 l 107 1176 b 0 1069 47 1176 0 1129 l 0 107 b 107 0 0 49 47 0 z m 214 910 b 232 928 214 919 222 928 b 249 910 242 928 249 919 l 249 267 b 232 249 249 257 242 249 b 214 267 222 249 214 257 z "},"$":{"ha":250,"x_min":0,"x_max":0,"o":"m 63 19 l 63 -35 l 151 -35 l 151 19 b 214 117 189 38 214 74 l 214 750 b 107 857 214 808 167 857 b 89 875 97 857 89 865 l 89 1063 b 107 1079 89 1072 97 1079 b 125 1063 117 1079 125 1072 l 125 875 l 214 875 l 214 1079 b 151 1176 214 1122 189 1160 l 151 1232 l 63 1232 l 63 1176 b 0 1079 25 1160 0 1122 l 0 875 b 107 768 0 815 47 768 b 125 750 117 768 125 760 l 125 135 b 107 117 125 125 117 117 b 89 135 97 117 89 125 l 89 750 l 0 750 l 0 117 b 63 19 0 74 25 38 z "},"€":{"ha":250,"x_min":0,"x_max":0,"o":"m 107 0 b 214 107 167 0 214 47 l 214 465 l 232 465 l 232 540 l 214 540 l 214 631 l 232 631 l 232 707 l 214 707 l 214 1069 b 107 1176 214 1129 167 1176 b 0 1069 47 1176 0 1129 l 0 107 b 107 0 0 47 47 0 z m 89 707 l 89 1051 b 107 1069 89 1061 97 1069 b 125 1051 117 1069 125 1061 l 125 707 z m 125 465 l 125 125 b 107 107 125 115 117 107 b 89 125 97 107 89 115 l 89 465 z m 89 540 l 89 631 l 125 631 l 125 540 z "},"%":{"ha":250,"x_min":0,"x_max":0,"o":"m 0 107 l 0 0 l 89 0 l 89 721 l 214 846 l 214 1176 l 125 1176 l 125 883 l 0 758 z m 125 428 l 214 428 l 214 642 l 125 642 z m 89 963 l 89 1176 l 0 1176 l 0 963 z "},"&":{"ha":285,"x_min":0,"x_max":0,"o":"m 19 803 b 0 740 7 785 0 763 l 0 107 b 107 0 0 47 47 0 b 214 107 167 0 214 47 l 214 740 b 213 757 214 746 214 751 l 249 757 l 249 847 l 107 847 b 89 864 97 847 89 854 l 89 1051 b 107 1069 89 1061 97 1069 b 125 1051 117 1069 125 1061 l 125 882 l 214 882 l 214 1069 b 107 1176 214 1129 167 1176 b 0 1069 47 1176 0 1129 l 0 864 b 19 803 0 842 7 819 z m 89 740 b 107 757 89 750 97 757 b 125 740 117 757 125 750 l 125 125 b 107 107 125 115 117 107 b 89 125 97 107 89 115 z "},"(":{"ha":143,"x_min":0,"x_max":0,"o":"m 0 1069 l 0 107 b 107 0 0 47 47 0 l 107 107 b 89 125 97 107 89 115 l 89 1051 b 107 1069 89 1061 97 1069 l 107 1176 b 0 1069 47 1176 0 1129 z "},")":{"ha":143,"x_min":0,"x_max":0,"o":"m 18 1051 l 18 125 b 0 107 18 115 10 107 l 0 0 b 107 107 60 0 107 47 l 107 1069 b 0 1176 107 1129 60 1176 l 0 1069 b 18 1051 10 1069 18 1061 z "},"{":{"ha":250,"x_min":0,"x_max":0,"o":"m 0 749 b 18 731 10 749 18 740 l 18 107 b 125 0 18 47 65 0 l 214 0 l 214 107 l 125 107 b 107 125 115 107 107 115 l 107 756 b 54 803 104 782 82 803 b 107 856 83 803 107 826 l 107 1051 b 125 1069 107 1061 115 1069 l 214 1069 l 214 1176 l 125 1176 b 18 1069 65 1176 18 1129 l 18 874 b 0 856 18 864 10 856 z "},"|":{"ha":143,"x_min":0,"x_max":0,"o":"m 107 1294 l 0 1294 l 0 -96 l 107 -96 z "},"}":{"ha":250,"x_min":0,"x_max":0,"o":"m 0 107 l 0 0 l 90 0 b 196 107 149 0 196 47 l 196 731 b 214 749 196 740 204 749 l 214 856 b 196 874 204 856 196 864 l 196 1069 b 90 1176 196 1129 149 1176 l 0 1176 l 0 1069 l 90 1069 b 107 1051 99 1069 107 1061 l 107 856 b 160 803 107 826 131 803 b 107 756 132 803 110 782 l 107 125 b 90 107 107 115 99 107 z "},"[":{"ha":250,"x_min":0,"x_max":0,"o":"m 0 1176 l 0 0 l 214 0 l 214 107 l 107 107 l 107 1069 l 214 1069 l 214 1176 z "},"]":{"ha":250,"x_min":0,"x_max":0,"o":"m 0 1176 l 0 1069 l 107 1069 l 107 107 l 0 107 l 0 0 l 214 0 l 214 1176 z "},"‘":{"ha":125,"x_min":0,"x_max":0,"o":"m 89 1176 l 0 1176 l 0 963 l 89 963 z "},"’":{"ha":125,"x_min":0,"x_max":0,"o":"m 89 1176 l 0 1176 l 0 963 l 89 963 z "},"“":{"ha":250,"x_min":0,"x_max":0,"o":"m 125 963 l 214 963 l 214 1176 l 125 1176 z m 0 963 l 89 963 l 89 1176 l 0 1176 z "},"”":{"ha":250,"x_min":0,"x_max":0,"o":"m 125 963 l 214 963 l 214 1176 l 125 1176 z m 0 963 l 89 963 l 89 1176 l 0 1176 z "},"Ê":{"ha":250,"x_min":0,"x_max":0,"o":"m 0 0 l 214 0 l 214 107 l 107 107 l 107 749 l 214 749 l 214 856 l 107 856 l 107 1069 l 214 1069 l 214 1176 l 0 1176 z m 31 1228 l 81 1228 l 107 1274 l 133 1228 l 183 1228 l 126 1328 l 88 1328 z "},"Ë":{"ha":250,"x_min":0,"x_max":0,"o":"m 0 0 l 214 0 l 214 107 l 107 107 l 107 749 l 214 749 l 214 856 l 107 856 l 107 1069 l 214 1069 l 214 1176 l 0 1176 z m 181 1251 l 181 1307 l 125 1307 l 125 1251 z m 33 1251 l 89 1251 l 89 1307 l 33 1307 z "},"Ì":{"ha":143,"x_min":0,"x_max":0,"o":"m 0 1304 l 31 1335 l 107 1258 l 76 1228 z m 107 1176 l 0 1176 l 0 0 l 107 0 z "},"Í":{"ha":143,"x_min":0,"x_max":0,"o":"m 107 1304 l 76 1335 l 0 1258 l 31 1228 z m 107 1176 l 0 1176 l 0 0 l 107 0 z "},"Î":{"ha":167,"x_min":0,"x_max":0,"o":"m 0 0 l 107 0 l 107 1176 l 0 1176 z m -22 1233 l 28 1233 l 54 1278 l 79 1233 l 131 1233 l 72 1333 l 35 1333 z "},"Ï":{"ha":163,"x_min":0,"x_max":0,"o":"m 0 1176 l 0 0 l 107 0 l 107 1176 z m 71 1251 l 126 1251 l 126 1307 l 71 1307 z m -19 1251 l 36 1251 l 36 1307 l -19 1307 z "},"Ñ":{"ha":250,"x_min":0,"x_max":0,"o":"m 0 1176 l 0 0 l 89 0 l 89 1069 l 107 1069 b 125 1051 117 1069 125 1061 l 125 0 l 214 0 l 214 1069 b 107 1176 214 1128 167 1176 z m 57 1304 l 13 1304 b 42 1253 13 1283 24 1264 b 74 1243 51 1246 63 1243 b 113 1257 88 1243 101 1247 b 125 1269 118 1261 122 1267 b 135 1279 131 1275 132 1278 b 149 1276 139 1281 144 1279 b 157 1263 154 1274 157 1268 l 201 1263 b 172 1314 201 1283 190 1303 b 122 1321 157 1324 139 1325 b 92 1299 107 1315 99 1306 b 85 1290 89 1294 88 1293 b 65 1289 79 1286 71 1286 b 57 1304 60 1293 57 1299 z "},"Ò":{"ha":250,"x_min":0,"x_max":0,"o":"m 107 0 b 214 107 167 0 214 47 l 214 1069 b 107 1176 214 1129 167 1176 b 0 1069 47 1176 0 1129 l 0 107 b 107 0 0 47 47 0 z m 89 125 l 89 1051 b 107 1069 89 1061 97 1069 b 125 1051 117 1069 125 1061 l 125 125 b 107 107 125 115 117 107 b 89 125 97 107 89 115 z m 54 1301 l 129 1225 l 160 1257 l 85 1332 z "},"Ó":{"ha":250,"x_min":0,"x_max":0,"o":"m 107 0 b 214 107 167 0 214 47 l 214 1069 b 107 1176 214 1129 167 1176 b 0 1069 47 1176 0 1129 l 0 107 b 107 0 0 47 47 0 z m 89 125 l 89 1051 b 107 1069 89 1061 97 1069 b 125 1051 117 1069 125 1061 l 125 125 b 107 107 125 115 117 107 b 89 125 97 107 89 115 z m 129 1332 l 54 1257 l 85 1225 l 160 1301 z "},"Ô":{"ha":250,"x_min":0,"x_max":0,"o":"m 107 0 b 214 107 167 0 214 47 l 214 1069 b 107 1176 214 1129 167 1176 b 0 1069 47 1176 0 1129 l 0 107 b 107 0 0 47 47 0 z m 107 1069 b 125 1051 117 1069 125 1061 l 125 125 b 107 107 125 115 117 107 b 89 125 97 107 89 115 l 89 1051 b 107 1069 89 1061 97 1069 z m 69 1228 l 81 1228 l 107 1274 l 133 1228 l 183 1228 l 126 1328 l 88 1328 l 31 1228 z "},"Õ":{"ha":250,"x_min":0,"x_max":0,"o":"m 107 0 b 214 107 167 0 214 47 l 214 1069 b 107 1176 214 1129 167 1176 b 0 1069 47 1176 0 1129 l 0 107 b 107 0 0 47 47 0 z m 89 1051 b 107 1069 89 1061 97 1069 b 125 1051 117 1069 125 1061 l 125 125 b 107 107 125 115 117 107 b 89 125 97 107 89 115 z m 57 1286 l 13 1286 b 74 1225 13 1254 42 1225 b 113 1239 88 1225 101 1231 b 125 1253 118 1244 122 1249 b 135 1261 131 1258 132 1260 b 149 1260 139 1263 144 1261 b 157 1244 154 1256 157 1250 l 201 1244 b 172 1296 201 1265 190 1285 b 122 1303 157 1306 139 1308 b 92 1281 107 1297 99 1288 b 85 1272 89 1278 88 1275 b 65 1272 79 1268 71 1268 b 57 1286 60 1275 57 1281 z "},"Ö":{"ha":250,"x_min":0,"x_max":0,"o":"m 107 0 b 214 107 165 0 214 47 l 214 1069 b 107 1176 214 1128 165 1176 b 0 1069 47 1176 0 1128 l 0 107 b 107 0 0 47 47 0 z m 89 125 l 89 1051 b 107 1069 89 1061 97 1069 b 125 1051 117 1069 125 1061 l 125 125 b 107 107 125 115 117 107 b 89 125 97 107 89 115 z m 181 1307 l 125 1307 l 125 1251 l 181 1251 z m 89 1307 l 33 1307 l 33 1251 l 89 1251 z "},"Ø":{"ha":364,"x_min":0,"x_max":0,"o":"m 0 10 l 43 0 l 61 78 b 164 0 74 33 115 0 b 271 107 224 0 271 47 l 271 933 l 328 1167 l 286 1176 l 267 1099 b 164 1176 254 1144 213 1176 b 57 1069 106 1176 57 1129 l 57 243 z m 147 608 l 147 1051 b 164 1069 147 1061 154 1069 b 182 1051 174 1069 182 1061 l 182 751 z m 147 425 l 182 568 l 182 125 b 164 107 182 115 174 107 b 147 125 154 107 147 115 z "},"Œ":{"ha":357,"x_min":0,"x_max":0,"o":"m 0 1069 l 0 107 b 107 0 0 47 47 0 b 125 1 113 0 118 0 l 125 0 l 321 0 l 321 107 l 214 107 l 214 749 l 321 749 l 321 856 l 214 856 l 214 1069 l 321 1069 l 321 1176 l 125 1176 l 125 1175 b 107 1176 118 1176 113 1176 b 0 1069 47 1176 0 1129 z m 107 1069 b 125 1051 117 1069 125 1061 l 125 124 b 107 107 125 115 117 107 b 89 125 97 107 89 115 l 89 1051 b 107 1069 89 1061 97 1069 z "},"Š":{"ha":250,"x_min":0,"x_max":0,"o":"m 107 0 b 214 107 167 0 214 47 l 214 740 b 107 847 214 799 167 847 b 89 864 97 847 89 854 l 89 1053 b 107 1069 89 1061 97 1069 b 125 1053 117 1069 125 1061 l 125 864 l 214 864 l 214 1069 b 107 1176 214 1129 167 1176 b 0 1069 47 1176 0 1129 l 0 864 b 107 757 0 806 47 757 b 125 740 117 757 125 750 l 125 125 b 107 107 125 115 117 107 b 89 125 97 107 89 115 l 89 740 l 0 740 l 0 107 b 107 0 0 47 47 0 z m 31 1328 l 88 1228 l 126 1228 l 183 1328 l 133 1328 l 107 1283 l 81 1328 z "},"Ù":{"ha":250,"x_min":0,"x_max":0,"o":"m 0 1069 l 0 107 b 107 0 0 47 47 0 b 214 107 167 0 214 47 l 214 1176 l 125 1176 l 125 125 b 107 107 125 115 117 107 b 89 125 97 107 89 115 l 89 1176 l 0 1176 z m 54 1301 l 129 1225 l 160 1257 l 85 1332 z "},"Ú":{"ha":250,"x_min":0,"x_max":0,"o":"m 0 1069 l 0 107 b 107 0 0 47 47 0 b 214 107 167 0 214 47 l 214 1176 l 125 1176 l 125 125 b 107 107 125 115 117 107 b 89 125 97 107 89 115 l 89 1176 l 0 1176 z m 129 1332 l 54 1257 l 85 1225 l 160 1301 z "},"Û":{"ha":250,"x_min":0,"x_max":0,"o":"m 0 107 b 107 0 0 47 47 0 b 214 107 167 0 214 47 l 214 1176 l 125 1176 l 125 125 b 107 107 125 115 117 107 b 89 125 97 107 89 115 l 89 1176 l 0 1176 z m 69 1228 l 81 1228 l 107 1274 l 133 1228 l 183 1228 l 126 1328 l 88 1328 l 31 1228 z "},"Ü":{"ha":250,"x_min":0,"x_max":0,"o":"m 0 1071 l 0 107 b 107 0 0 47 47 0 b 214 107 167 0 214 47 l 214 1178 l 125 1178 l 125 125 b 107 107 125 115 117 107 b 89 125 97 107 89 115 l 89 1178 l 0 1178 z m 125 1307 l 125 1251 l 181 1251 l 181 1307 z m 89 1251 l 89 1307 l 33 1307 l 33 1251 z "},"Ÿ":{"ha":250,"x_min":0,"x_max":0,"o":"m 0 846 b 63 749 0 803 25 765 l 63 0 l 151 0 l 151 749 b 214 846 189 765 214 803 l 214 1176 l 125 1176 l 125 874 b 107 856 125 864 117 856 b 89 874 97 856 89 864 l 89 1176 l 0 1176 z m 125 1251 l 181 1251 l 181 1307 l 125 1307 z m 89 1251 l 89 1307 l 33 1307 l 33 1251 z "},"Ý":{"ha":250,"x_min":0,"x_max":0,"o":"m 0 1176 l 0 846 b 63 749 0 803 25 765 l 63 0 l 151 0 l 151 749 b 214 846 189 765 214 803 l 214 1176 l 125 1176 l 125 874 b 107 856 125 864 117 856 b 89 874 97 856 89 864 l 89 1176 z m 54 1256 l 85 1225 l 160 1301 l 129 1332 z "},"Ž":{"ha":250,"x_min":0,"x_max":0,"o":"m 0 107 l 0 0 l 214 0 l 214 722 l 125 722 l 125 107 l 89 107 l 89 721 l 214 846 l 214 1176 l 0 1176 l 0 883 l 89 883 l 89 1069 l 125 1069 l 125 883 l 0 758 z m 69 1328 l 31 1329 l 88 1228 l 126 1228 l 183 1328 l 133 1328 l 107 1283 l 81 1328 z "},"à":{"ha":250,"x_min":0,"x_max":0,"o":"m 90 642 l 90 838 b 103 854 90 846 96 853 b 125 838 115 857 125 849 l 125 599 l 106 599 b 0 493 47 599 0 551 l 0 106 b 106 0 0 47 47 0 l 214 0 l 214 813 b 97 963 214 918 160 968 b 0 853 42 957 0 908 l 0 642 z m 90 475 b 106 492 90 485 97 492 l 125 492 l 125 107 l 107 107 b 90 125 97 107 90 115 z m 129 1011 l 160 1042 l 85 1118 l 54 1088 z "},"á":{"ha":250,"x_min":0,"x_max":0,"o":"m 90 642 l 90 838 b 103 854 90 846 96 853 b 125 838 115 857 125 849 l 125 599 l 106 599 b 0 493 47 599 0 551 l 0 106 b 106 0 0 47 47 0 l 214 0 l 214 813 b 97 963 214 918 160 968 b 0 853 42 957 0 908 l 0 642 z m 90 475 b 106 492 90 485 97 492 l 125 492 l 125 107 l 107 107 b 90 125 97 107 90 115 z m 54 1042 l 85 1011 l 160 1088 l 129 1118 z "},"â":{"ha":250,"x_min":0,"x_max":0,"o":"m 0 642 l 90 642 l 90 838 b 103 854 90 846 96 853 b 125 838 115 857 125 849 l 125 599 l 106 599 b 0 493 47 599 0 551 l 0 106 b 106 0 0 47 47 0 l 214 0 l 214 813 b 97 963 214 918 160 968 b 0 853 42 957 0 908 z m 106 492 l 125 492 l 125 107 l 107 107 b 90 125 97 107 90 115 l 90 475 b 106 492 90 485 97 492 z m 31 1011 l 81 1011 l 107 1057 l 133 1011 l 183 1011 l 126 1111 l 88 1111 z "},"ã":{"ha":250,"x_min":0,"x_max":0,"o":"m 0 493 l 0 106 b 106 0 0 47 47 0 l 214 0 l 214 813 b 97 963 214 918 160 968 b 0 853 42 957 0 908 l 0 642 l 90 642 l 90 838 b 103 854 90 846 96 853 b 125 838 115 857 125 849 l 125 599 l 106 599 b 0 493 47 599 0 551 z m 90 475 b 106 492 90 485 97 492 l 125 492 l 125 107 l 107 107 b 90 125 97 107 90 115 z m 14 1072 b 42 1021 13 1051 24 1032 b 74 1011 51 1014 63 1011 b 125 1039 94 1011 114 1022 b 135 1047 131 1044 132 1046 b 149 1044 139 1049 144 1047 b 157 1031 154 1042 157 1036 l 201 1031 b 172 1082 201 1051 190 1071 b 122 1089 157 1092 139 1094 b 92 1067 107 1083 99 1074 b 85 1058 89 1064 88 1061 b 65 1057 79 1054 71 1054 b 57 1072 60 1061 57 1067 z "},"ä":{"ha":250,"x_min":0,"x_max":0,"o":"m 0 106 b 106 0 0 47 47 0 l 214 0 l 214 813 b 97 963 214 918 160 968 b 0 854 42 957 0 910 l 0 642 l 90 642 l 90 838 b 103 856 90 846 96 854 b 125 839 115 858 125 849 l 125 599 l 106 599 b 0 493 47 599 0 551 z m 107 492 l 125 492 l 125 107 l 107 107 b 90 125 97 107 90 115 l 90 475 b 107 492 90 485 97 492 z m 181 1093 l 125 1093 l 125 1038 l 181 1038 z m 89 1093 l 33 1093 l 33 1038 l 89 1038 z "},"å":{"ha":250,"x_min":0,"x_max":0,"o":"m 0 106 b 106 0 0 47 47 0 l 214 0 l 214 813 b 97 963 214 918 160 968 b 0 853 42 957 0 908 l 0 642 l 90 642 l 90 838 b 103 854 90 846 96 853 b 125 838 115 857 125 849 l 125 599 l 106 599 b 0 493 47 599 0 551 z m 106 492 l 125 492 l 125 107 l 107 107 b 90 125 97 107 90 115 l 90 475 b 106 492 90 485 97 492 z m 107 1133 b 46 1072 74 1133 46 1106 b 107 1011 46 1039 74 1011 b 167 1072 140 1011 167 1039 b 107 1133 167 1106 140 1133 z m 89 1072 b 107 1089 89 1082 97 1089 b 124 1072 115 1089 124 1082 b 107 1056 124 1063 115 1056 b 89 1072 97 1056 89 1063 z "},"æ":{"ha":375,"x_min":0,"x_max":0,"o":"m 0 106 b 104 0 0 49 46 1 l 242 0 b 338 110 297 6 338 54 l 338 500 l 249 500 l 249 125 b 235 107 249 117 243 110 b 214 122 225 106 215 113 l 214 535 l 338 535 l 338 640 l 339 857 b 232 963 339 915 290 963 b 168 940 208 963 186 954 b 97 963 147 957 122 964 b 0 853 42 957 0 908 l 0 642 l 90 642 l 90 838 b 103 854 90 846 96 853 b 124 840 114 857 122 850 l 124 599 l 106 599 b 0 493 47 599 0 551 z m 90 125 l 90 475 b 106 492 90 485 97 492 l 124 492 l 124 150 b 125 136 124 146 125 140 l 125 107 l 107 107 b 90 125 97 107 90 115 z m 214 839 b 231 856 214 847 221 856 b 249 838 240 856 249 847 l 249 642 l 214 642 z "},"ç":{"ha":250,"x_min":0,"x_max":0,"o":"m 0 108 b 107 1 0 49 47 1 l 114 1 b 124 -14 119 -1 124 -7 b 106 -32 124 -24 115 -32 b 89 -14 97 -32 89 -24 l 47 -28 b 106 -75 53 -56 78 -75 b 167 -14 139 -75 167 -47 b 160 15 167 -4 164 6 b 214 108 192 33 214 68 l 214 571 l 125 571 l 125 125 b 107 108 125 115 117 108 b 89 125 97 108 89 115 l 89 839 b 107 856 89 849 97 856 b 125 839 117 856 125 849 l 125 607 l 214 607 l 214 856 b 107 963 214 915 165 963 b 0 856 47 963 0 915 z "},"đ":{"ha":250,"x_min":0,"x_max":0,"o":"m 0 107 b 107 0 0 49 49 0 l 214 0 l 214 1050 l 250 1050 l 250 1093 l 214 1093 l 214 1179 l 125 1179 l 125 1093 l 89 1093 l 89 1050 l 125 1050 l 125 963 l 107 963 b 0 857 47 963 0 915 z m 89 125 l 89 849 b 107 865 89 858 97 865 l 125 865 l 125 107 l 104 107 b 89 125 96 108 89 115 z "},"è":{"ha":250,"x_min":0,"x_max":0,"o":"m 0 854 l 0 150 b 118 0 0 44 54 -6 b 214 110 172 6 214 54 l 214 500 l 125 500 l 125 125 b 111 107 125 117 119 110 b 89 125 100 106 89 114 l 89 535 l 214 535 l 214 857 b 108 963 214 915 167 963 b 0 854 49 963 0 914 z m 89 839 b 107 856 89 847 97 856 b 125 838 117 856 125 847 l 125 642 l 89 642 z m 129 1014 l 160 1044 l 85 1121 l 54 1090 z "},"é":{"ha":250,"x_min":0,"x_max":0,"o":"m 0 854 l 0 150 b 118 0 0 44 54 -6 b 214 110 172 6 214 54 l 214 500 l 125 500 l 125 125 b 111 107 125 117 119 110 b 89 125 100 106 89 114 l 89 535 l 214 535 l 214 857 b 108 963 214 915 167 963 b 0 854 49 963 0 914 z m 107 856 b 125 838 117 856 125 847 l 125 642 l 89 642 l 89 839 b 107 856 89 847 97 856 z m 53 1044 l 85 1014 l 160 1090 l 129 1121 z "},"ê":{"ha":250,"x_min":0,"x_max":0,"o":"m 0 854 l 0 150 b 118 0 0 44 54 -6 b 214 110 172 6 214 54 l 214 500 l 125 500 l 125 125 b 111 107 125 117 119 110 b 89 125 100 106 89 114 l 89 535 l 214 535 l 214 857 b 108 963 214 915 167 963 b 0 854 49 963 0 914 z m 31 1014 l 81 1014 l 107 1060 l 133 1014 l 183 1014 l 126 1114 l 88 1114 z m 107 856 b 125 838 117 856 125 847 l 125 642 l 89 642 l 89 839 b 107 856 89 847 97 856 z "},"ë":{"ha":250,"x_min":0,"x_max":0,"o":"m 0 856 l 0 150 b 118 0 0 44 54 -6 b 214 110 172 6 214 54 l 214 500 l 125 500 l 125 125 b 111 107 125 117 119 110 b 89 125 100 106 89 114 l 89 535 l 214 535 l 214 857 b 108 963 214 915 167 963 b 0 856 49 963 0 915 z m 89 642 l 89 839 b 107 856 89 849 97 856 b 125 839 117 856 125 849 l 125 642 z m 181 1093 l 125 1093 l 125 1038 l 181 1038 z m 89 1093 l 33 1093 l 33 1038 l 89 1038 z "},"ì":{"ha":143,"x_min":0,"x_max":0,"o":"m 107 963 l 0 963 l 0 0 l 107 0 z m 8 1146 l 39 1176 l 114 1100 l 83 1069 z "},"í":{"ha":143,"x_min":0,"x_max":0,"o":"m 107 963 l 0 963 l 0 0 l 107 0 z m 107 1144 l 76 1176 l 0 1100 l 31 1069 z "},"î":{"ha":167,"x_min":0,"x_max":0,"o":"m 0 0 l 107 0 l 107 963 l 0 963 z m -22 1072 l 28 1072 l 54 1118 l 79 1072 l 131 1072 l 72 1172 l 35 1172 z "},"ï":{"ha":156,"x_min":0,"x_max":0,"o":"m 0 914 l 0 0 l 101 0 l 101 914 z m 67 1040 l 119 1040 l 119 1093 l 67 1093 z m -19 1040 l 33 1040 l 33 1093 l -19 1093 z "},"ł":{"ha":243,"x_min":0,"x_max":0,"o":"m 0 515 l 31 485 l 50 504 l 50 0 l 157 0 l 157 611 l 207 661 l 176 692 l 157 672 l 157 1176 l 50 1176 l 50 565 z "},"ñ":{"ha":250,"x_min":0,"x_max":0,"o":"m 89 0 l 89 856 l 107 856 b 125 838 117 856 125 847 l 125 0 l 214 0 l 214 856 b 107 963 214 915 167 963 l 0 963 l 0 0 z m 57 1075 l 13 1075 b 74 1015 13 1040 40 1015 b 113 1029 88 1015 101 1019 b 125 1042 118 1033 122 1038 b 135 1050 131 1047 132 1050 b 149 1049 140 1051 144 1051 b 157 1033 154 1046 157 1040 l 201 1033 b 172 1085 201 1054 190 1074 b 122 1092 157 1094 139 1097 b 92 1069 107 1088 99 1076 b 85 1063 89 1067 88 1064 b 65 1061 79 1058 71 1057 b 57 1075 60 1064 57 1069 z "},"ò":{"ha":250,"x_min":0,"x_max":0,"o":"m 107 0 b 214 107 167 0 214 47 l 214 856 b 107 963 214 915 167 963 b 0 856 47 963 0 915 l 0 107 b 107 0 0 47 47 0 z m 89 125 l 89 838 b 107 856 89 847 97 856 b 125 838 117 856 125 847 l 125 125 b 107 107 125 115 117 107 b 89 125 97 107 89 115 z m 54 1088 l 129 1013 l 160 1043 l 85 1118 z "},"ó":{"ha":250,"x_min":0,"x_max":0,"o":"m 107 0 b 214 107 167 0 214 47 l 214 856 b 107 963 214 915 167 963 b 0 856 47 963 0 915 l 0 107 b 107 0 0 47 47 0 z m 89 125 l 89 838 b 107 856 89 847 97 856 b 125 838 117 856 125 847 l 125 125 b 107 107 125 115 117 107 b 89 125 97 107 89 115 z m 129 1118 l 54 1043 l 85 1013 l 160 1088 z "},"ô":{"ha":250,"x_min":0,"x_max":0,"o":"m 107 0 b 214 107 167 0 214 47 l 214 856 b 107 963 214 915 167 963 b 0 856 47 963 0 915 l 0 107 b 107 0 0 47 47 0 z m 107 856 b 125 838 117 856 125 847 l 125 125 b 107 107 125 115 117 107 b 89 125 97 107 89 115 l 89 838 b 107 856 89 847 97 856 z m 69 1019 l 81 1019 l 107 1065 l 133 1019 l 183 1019 l 126 1119 l 88 1119 l 31 1019 z "},"õ":{"ha":250,"x_min":0,"x_max":0,"o":"m 107 0 b 214 107 167 0 214 47 l 214 856 b 107 963 214 915 167 963 b 0 856 47 963 0 915 l 0 107 b 107 0 0 47 47 0 z m 89 838 b 107 856 89 847 97 856 b 125 838 117 856 125 847 l 125 125 b 107 107 125 115 117 107 b 89 125 97 107 89 115 z m 57 1075 l 13 1075 b 74 1015 13 1040 40 1015 b 113 1029 88 1015 101 1019 b 125 1042 118 1033 122 1038 b 135 1050 131 1047 132 1050 b 149 1049 140 1051 144 1051 b 157 1033 154 1046 157 1040 l 201 1033 b 172 1085 201 1054 190 1074 b 122 1092 157 1094 139 1097 b 92 1069 107 1088 99 1076 b 85 1063 89 1067 88 1064 b 65 1061 79 1058 71 1057 b 57 1075 60 1064 57 1069 z "},"ö":{"ha":249,"x_min":0,"x_max":0,"o":"m 107 0 b 213 107 165 0 213 47 l 213 853 b 107 958 213 911 165 958 b 0 853 47 958 0 911 l 0 107 b 107 0 0 47 47 0 z m 89 835 b 107 851 89 844 97 851 b 124 835 117 851 124 844 l 124 124 b 107 107 124 114 117 107 b 89 124 97 107 89 114 z m 179 1038 l 179 1093 l 124 1093 l 124 1038 z m 89 1038 l 89 1093 l 33 1093 l 33 1038 z "},"ø":{"ha":313,"x_min":0,"x_max":0,"o":"m 0 10 l 43 0 l 53 43 b 138 0 72 17 103 0 b 244 107 197 0 244 49 l 244 826 l 276 953 l 233 963 l 224 921 b 138 964 204 947 172 964 b 31 856 79 964 31 915 l 31 136 z m 121 839 b 138 856 121 849 128 856 b 156 839 147 856 156 849 l 156 644 l 121 501 z m 121 318 l 156 461 l 156 125 b 138 107 156 115 147 107 b 121 125 128 107 121 115 z "},"œ":{"ha":375,"x_min":0,"x_max":0,"o":"m 107 0 b 171 22 131 0 154 8 b 242 0 192 6 215 -1 b 339 110 297 6 339 54 l 339 500 l 249 500 l 249 125 b 235 107 249 117 243 110 b 214 125 224 106 214 114 l 214 535 l 339 535 l 339 857 b 233 963 339 915 292 963 b 169 943 210 963 188 956 b 107 963 151 956 131 963 b 0 856 47 963 0 915 l 0 107 b 107 0 0 49 47 0 z m 89 125 l 89 839 b 107 856 89 847 97 856 b 125 839 117 856 125 847 l 125 125 b 107 107 125 115 117 107 b 89 125 97 107 89 115 z m 214 839 b 231 856 214 849 222 856 b 249 839 242 856 249 849 l 249 642 l 214 642 z "},"š":{"ha":250,"x_min":0,"x_max":0,"o":"m 0 107 b 107 0 0 47 47 0 b 214 107 167 0 214 47 l 214 526 b 107 633 214 586 167 633 b 89 651 97 633 89 642 l 89 839 b 107 857 89 849 97 857 b 125 839 117 857 125 849 l 125 651 l 214 651 l 214 857 b 107 964 214 915 167 964 b 0 857 47 964 0 915 l 0 651 b 107 544 0 592 47 544 b 125 526 117 544 125 536 l 125 125 b 107 107 125 115 117 107 b 89 125 97 107 89 115 l 89 526 l 0 526 z m 88 1021 l 125 1021 l 183 1121 l 132 1121 l 107 1075 l 81 1121 l 31 1121 z "},"ù":{"ha":250,"x_min":0,"x_max":0,"o":"m 0 856 l 0 107 b 107 0 0 47 47 0 b 214 107 167 0 214 47 l 214 963 l 125 963 l 125 125 b 107 107 125 115 117 107 b 89 125 97 107 89 115 l 89 963 l 0 963 z m 53 1089 l 129 1014 l 160 1044 l 85 1119 z "},"ú":{"ha":250,"x_min":0,"x_max":0,"o":"m 0 856 l 0 107 b 107 0 0 47 47 0 b 214 107 167 0 214 47 l 214 963 l 125 963 l 125 125 b 107 107 125 115 117 107 b 89 125 97 107 89 115 l 89 963 l 0 963 z m 129 1119 l 53 1044 l 85 1014 l 160 1089 z "},"û":{"ha":250,"x_min":0,"x_max":0,"o":"m 0 107 b 107 0 0 47 47 0 b 214 107 167 0 214 47 l 214 963 l 125 963 l 125 125 b 107 107 125 115 117 107 b 89 125 97 107 89 115 l 89 963 l 0 963 z m 69 1021 l 81 1021 l 107 1067 l 133 1021 l 183 1021 l 126 1121 l 88 1121 l 31 1021 z "},"ü":{"ha":249,"x_min":0,"x_max":0,"o":"m 0 107 b 107 0 0 47 47 0 b 213 107 165 0 213 47 l 213 960 l 124 960 l 124 124 b 107 107 124 115 117 107 b 89 124 97 107 89 115 l 89 960 l 0 960 z m 179 1038 l 179 1093 l 124 1093 l 124 1038 z m 89 1038 l 89 1093 l 33 1093 l 33 1038 z "},"ý":{"ha":250,"x_min":0,"x_max":0,"o":"m 0 -107 b 107 -214 0 -167 47 -214 b 214 -107 167 -214 214 -167 l 214 964 l 125 964 l 125 107 l 104 107 b 89 125 96 108 89 117 l 89 964 l 0 964 l 0 107 b 107 0 0 49 49 0 l 125 0 l 125 -89 b 107 -107 125 -99 117 -107 b 89 -89 97 -107 89 -99 l 89 -35 l 0 -35 z m 129 1119 l 54 1043 l 85 1013 l 160 1088 z "},"ÿ":{"ha":250,"x_min":0,"x_max":0,"o":"m 0 -107 b 107 -214 0 -167 47 -214 b 214 -107 167 -214 214 -167 l 214 963 l 125 963 l 125 107 l 104 107 b 89 125 96 108 89 115 l 89 963 l 0 963 l 0 107 b 107 0 0 47 49 0 l 125 0 l 125 -89 b 107 -107 125 -99 117 -107 b 89 -89 97 -107 89 -99 l 89 -35 l 0 -35 z m 181 1097 l 125 1097 l 125 1042 l 181 1042 z m 89 1097 l 33 1097 l 33 1042 l 89 1042 z "},"ž":{"ha":250,"x_min":0,"x_max":0,"o":"m 0 107 l 0 0 l 214 0 l 214 507 l 125 507 l 125 107 l 89 107 l 89 507 l 214 632 l 214 963 l 0 963 l 0 669 l 89 669 l 89 856 l 125 856 l 125 669 l 0 544 z m 88 1021 l 126 1021 l 183 1121 l 133 1121 l 107 1076 l 81 1121 l 31 1121 z "},"Ā":{"ha":250,"x_min":0,"x_max":0,"o":"m 89 0 l 89 749 l 125 749 l 125 0 l 214 0 l 214 1069 b 107 1176 214 1128 165 1176 b 0 1069 49 1176 0 1128 l 0 0 z m 89 1051 b 107 1069 89 1061 97 1069 b 125 1051 117 1069 125 1061 l 125 856 l 89 856 z m 56 1306 l 56 1261 l 163 1261 l 163 1306 z "},"ā":{"ha":250,"x_min":0,"x_max":0,"o":"m 90 642 l 90 838 b 103 854 90 846 96 853 b 125 838 115 857 125 849 l 125 599 l 106 599 b 0 493 47 599 0 551 l 0 106 b 106 0 0 47 47 0 l 214 0 l 214 813 b 97 963 214 918 160 968 b 0 853 42 957 0 908 l 0 642 z m 90 475 b 106 492 90 485 97 492 l 125 492 l 125 107 l 107 107 b 90 125 97 107 90 115 z m 54 1011 l 161 1011 l 161 1056 l 54 1056 z "},"Ă":{"ha":250,"x_min":0,"x_max":0,"o":"m 0 0 l 89 0 l 89 749 l 125 749 l 125 0 l 214 0 l 214 1069 b 107 1176 214 1128 165 1176 b 0 1069 49 1176 0 1128 z m 89 856 l 89 1051 b 107 1069 89 1061 97 1069 b 125 1051 117 1069 125 1061 l 125 856 z m 107 1254 b 168 1313 139 1254 167 1281 l 124 1313 b 107 1299 122 1304 115 1299 b 90 1313 99 1299 92 1304 l 46 1313 b 107 1254 47 1281 75 1254 z "},"ă":{"ha":250,"x_min":0,"x_max":0,"o":"m 0 853 l 0 642 l 90 642 l 90 838 b 103 854 90 846 96 853 b 125 838 115 857 125 849 l 125 599 l 106 599 b 0 493 47 599 0 551 l 0 106 b 106 0 0 47 47 0 l 214 0 l 214 813 b 97 963 214 918 160 968 b 0 853 42 957 0 908 z m 106 492 l 125 492 l 125 107 l 107 107 b 90 125 97 107 90 115 l 90 475 b 106 492 90 485 97 492 z m 46 1069 b 107 1011 47 1038 75 1011 b 168 1069 139 1011 167 1038 l 124 1069 b 107 1056 122 1061 115 1056 b 90 1069 99 1056 92 1061 z "},"Ą":{"ha":250,"x_min":0,"x_max":0,"o":"m 0 0 l 89 0 l 89 749 l 125 749 l 125 25 b 107 -17 114 15 107 0 b 168 -78 107 -50 135 -78 b 226 -31 196 -78 221 -58 l 185 -17 b 168 -35 185 -26 178 -35 b 150 -17 158 -35 150 -26 b 164 0 150 -8 157 -1 l 171 0 b 174 -1 172 0 172 0 l 172 0 l 214 0 l 214 1069 b 107 1176 214 1128 165 1176 b 0 1069 49 1176 0 1128 z m 107 1069 b 125 1051 117 1069 125 1061 l 125 856 l 89 856 l 89 1051 b 107 1069 89 1061 97 1069 z "},"ą":{"ha":250,"x_min":0,"x_max":0,"o":"m 0 853 l 0 640 l 90 640 l 90 836 b 103 854 90 844 96 853 b 125 838 115 857 125 847 l 125 599 l 106 599 b 0 492 47 599 0 550 l 0 106 b 106 0 0 47 47 0 l 108 0 b 107 -15 108 -6 107 -10 b 168 -76 107 -49 135 -76 b 226 -29 196 -76 221 -57 l 185 -15 b 168 -33 185 -25 178 -33 b 150 -15 158 -33 150 -25 b 160 0 150 -10 154 -4 l 214 0 l 214 813 b 97 961 214 917 160 968 b 0 853 42 956 0 908 z m 90 475 b 106 492 90 483 97 492 l 125 492 l 125 107 l 107 107 b 90 124 97 107 90 114 z "},"Ć":{"ha":250,"x_min":0,"x_max":0,"o":"m 0 107 b 107 0 0 47 47 0 b 214 107 165 0 214 47 l 214 785 l 125 785 l 125 125 b 107 107 125 115 117 107 b 89 125 97 107 89 115 l 89 1051 b 107 1069 89 1061 97 1069 b 125 1051 117 1069 125 1061 l 125 819 l 214 819 l 214 1069 b 107 1176 214 1128 165 1176 b 0 1069 47 1176 0 1128 z m 132 1335 l 56 1258 l 88 1228 l 163 1304 z "},"ć":{"ha":250,"x_min":0,"x_max":0,"o":"m 107 0 b 214 107 165 0 214 47 l 214 571 l 125 571 l 125 125 b 107 107 125 115 117 107 b 89 125 97 107 89 115 l 89 838 b 107 856 89 847 97 856 b 125 838 117 856 125 847 l 125 606 l 214 606 l 214 856 b 107 963 214 914 165 963 b 0 856 47 963 0 914 l 0 107 b 107 0 0 47 47 0 z m 56 1044 l 88 1014 l 163 1090 l 132 1121 z "},"Ĉ":{"ha":250,"x_min":0,"x_max":0,"o":"m 0 107 b 107 0 0 47 47 0 b 214 107 165 0 214 47 l 214 785 l 125 785 l 125 125 b 107 107 125 115 117 107 b 89 125 97 107 89 115 l 89 1051 b 107 1069 89 1061 97 1069 b 125 1051 117 1069 125 1061 l 125 819 l 214 819 l 214 1069 b 107 1176 214 1128 165 1176 b 0 1069 47 1176 0 1128 z m 69 1228 l 81 1228 l 107 1274 l 133 1228 l 183 1228 l 126 1328 l 88 1328 l 31 1228 z "},"ĉ":{"ha":250,"x_min":0,"x_max":0,"o":"m 0 107 b 107 0 0 47 47 0 b 214 107 165 0 214 47 l 214 571 l 125 571 l 125 125 b 107 107 125 115 117 107 b 89 125 97 107 89 115 l 89 838 b 107 856 89 847 97 856 b 125 838 117 856 125 847 l 125 606 l 214 606 l 214 856 b 107 963 214 914 165 963 b 0 856 47 963 0 914 z m 69 1014 l 81 1014 l 107 1060 l 133 1014 l 183 1014 l 126 1114 l 88 1114 l 31 1014 z "},"Ċ":{"ha":250,"x_min":0,"x_max":0,"o":"m 0 107 b 107 0 0 47 47 0 b 214 107 167 0 214 47 l 214 785 l 125 785 l 125 125 b 107 107 125 115 117 107 b 89 125 97 107 89 115 l 89 1051 b 107 1069 89 1061 97 1069 b 125 1051 117 1069 125 1061 l 125 819 l 214 819 l 214 1069 b 107 1176 214 1129 167 1176 b 0 1069 47 1176 0 1129 z m 79 1310 l 79 1254 l 135 1254 l 135 1310 z "},"ċ":{"ha":250,"x_min":0,"x_max":0,"o":"m 0 107 b 107 0 0 47 47 0 b 214 107 167 0 214 47 l 214 571 l 125 571 l 125 125 b 107 107 125 115 117 107 b 89 125 97 107 89 115 l 89 839 b 107 856 89 849 97 856 b 125 839 117 856 125 849 l 125 606 l 214 606 l 214 856 b 107 964 214 915 167 964 b 0 856 47 964 0 915 z m 79 1093 l 79 1038 l 135 1038 l 135 1093 z "},"Č":{"ha":250,"x_min":0,"x_max":0,"o":"m 0 107 b 107 0 0 47 47 0 b 214 107 165 0 214 47 l 214 785 l 125 785 l 125 125 b 107 107 125 115 117 107 b 89 125 97 107 89 115 l 89 1051 b 107 1069 89 1061 97 1069 b 125 1051 117 1069 125 1061 l 125 819 l 214 819 l 214 1069 b 107 1176 214 1128 165 1176 b 0 1069 47 1176 0 1128 z m 89 1228 l 126 1228 l 183 1328 l 133 1328 l 107 1283 l 82 1328 l 32 1328 z "},"č":{"ha":250,"x_min":0,"x_max":0,"o":"m 0 107 b 107 0 0 47 47 0 b 214 107 165 0 214 47 l 214 571 l 125 571 l 125 125 b 107 107 125 115 117 107 b 89 125 97 107 89 115 l 89 838 b 107 856 89 847 97 856 b 125 838 117 856 125 847 l 125 606 l 214 606 l 214 856 b 107 963 214 914 165 963 b 0 856 47 963 0 914 z m 89 1014 l 126 1014 l 183 1114 l 133 1114 l 107 1069 l 82 1114 l 32 1114 z "},"Ď":{"ha":250,"x_min":0,"x_max":0,"o":"m 0 0 l 107 0 b 214 107 165 0 214 47 l 214 1069 b 107 1176 214 1128 165 1176 l 0 1176 z m 107 1069 b 125 1051 117 1069 125 1061 l 125 125 b 107 107 125 115 117 107 l 89 107 l 89 1069 z m 89 1228 l 126 1228 l 183 1328 l 133 1328 l 107 1283 l 82 1328 l 32 1328 z "},"ď":{"ha":357,"x_min":0,"x_max":0,"o":"m 0 107 b 107 0 0 49 49 0 l 214 0 l 214 1176 l 125 1176 l 125 963 l 107 963 b 0 857 47 963 0 915 z m 89 849 b 107 867 89 858 97 867 l 125 867 l 125 107 l 104 107 b 89 125 96 108 89 115 z m 261 1138 l 235 1099 l 265 1076 l 321 1154 l 289 1176 l 235 1176 l 235 1138 z "},"Ē":{"ha":250,"x_min":0,"x_max":0,"o":"m 0 0 l 214 0 l 214 107 l 107 107 l 107 749 l 214 749 l 214 856 l 107 856 l 107 1069 l 214 1069 l 214 1176 l 0 1176 z m 53 1261 l 161 1261 l 161 1306 l 53 1306 z "},"ē":{"ha":250,"x_min":0,"x_max":0,"o":"m 0 854 l 0 150 b 118 0 0 44 54 -6 b 214 110 172 6 214 54 l 214 500 l 125 500 l 125 125 b 111 107 125 117 119 110 b 89 125 100 106 89 114 l 89 535 l 214 535 l 214 857 b 108 963 214 915 167 963 b 0 854 49 963 0 914 z m 107 856 b 125 838 117 856 125 847 l 125 642 l 89 642 l 89 839 b 107 856 89 847 97 856 z m 54 1056 l 54 1011 l 161 1011 l 161 1056 z "},"Ĕ":{"ha":250,"x_min":0,"x_max":0,"o":"m 0 0 l 214 0 l 214 107 l 107 107 l 107 749 l 214 749 l 214 856 l 107 856 l 107 1069 l 214 1069 l 214 1176 l 0 1176 z m 46 1313 b 107 1254 47 1279 75 1254 b 168 1313 139 1254 167 1279 l 124 1313 b 107 1297 122 1304 115 1297 b 90 1313 99 1297 92 1304 z "},"ĕ":{"ha":250,"x_min":0,"x_max":0,"o":"m 0 854 l 0 150 b 118 0 0 44 54 -6 b 214 110 172 6 214 54 l 214 500 l 125 500 l 125 125 b 111 107 125 117 119 110 b 89 125 100 106 89 114 l 89 535 l 214 535 l 214 857 b 108 963 214 915 167 963 b 0 854 49 963 0 914 z m 107 856 b 125 838 117 856 125 847 l 125 642 l 89 642 l 89 839 b 107 856 89 847 97 856 z m 46 1069 b 107 1011 47 1038 75 1011 b 168 1069 139 1011 167 1038 l 124 1069 b 107 1056 122 1061 115 1056 b 90 1069 99 1056 92 1061 z "},"Ė":{"ha":250,"x_min":0,"x_max":0,"o":"m 0 0 l 214 0 l 214 107 l 107 107 l 107 749 l 214 749 l 214 856 l 107 856 l 107 1069 l 214 1069 l 214 1176 l 0 1176 z m 135 1254 l 135 1310 l 79 1310 l 79 1254 z "},"ė":{"ha":250,"x_min":0,"x_max":0,"o":"m 0 856 l 0 150 b 118 0 0 44 54 -6 b 214 110 172 6 214 54 l 214 500 l 125 500 l 125 125 b 111 108 125 117 119 110 b 89 125 100 106 89 114 l 89 535 l 214 535 l 214 857 b 108 963 214 915 167 963 b 0 856 49 964 0 915 z m 89 642 l 89 839 b 107 856 89 849 97 856 b 125 839 117 856 125 849 l 125 642 z m 79 1093 l 79 1038 l 135 1038 l 135 1093 z "},"Ę":{"ha":250,"x_min":0,"x_max":0,"o":"m 0 0 l 49 0 b 47 -14 47 -4 47 -10 b 108 -75 47 -47 74 -75 b 167 -28 136 -75 161 -56 l 125 -14 b 108 -32 125 -24 117 -32 b 90 -14 99 -32 90 -24 b 99 0 90 -8 94 -3 l 214 0 l 214 107 l 107 107 l 107 749 l 214 749 l 214 856 l 107 856 l 107 1069 l 214 1069 l 214 1176 l 0 1176 z "},"ę":{"ha":250,"x_min":0,"x_max":0,"o":"m 56 15 b 47 -15 50 6 47 -4 b 108 -76 47 -49 74 -76 b 167 -29 136 -76 161 -57 l 125 -15 b 108 -33 125 -25 117 -33 b 90 -15 99 -33 90 -25 b 100 0 90 -8 94 -3 b 118 0 106 -1 111 -1 b 214 108 172 6 214 53 l 214 499 l 125 499 l 125 125 b 111 107 125 117 119 108 b 89 124 100 104 89 113 l 89 535 l 214 535 l 214 856 b 108 961 214 914 167 961 b 0 854 49 961 0 914 l 0 149 b 56 15 0 82 22 36 z m 89 640 l 89 838 b 107 854 89 847 97 854 b 125 838 117 854 125 847 l 125 640 z "},"Ě":{"ha":250,"x_min":0,"x_max":0,"o":"m 0 1176 l 0 0 l 214 0 l 214 107 l 107 107 l 107 749 l 214 749 l 214 856 l 107 856 l 107 1069 l 214 1069 l 214 1176 z m 31 1329 l 88 1229 l 126 1229 l 183 1329 l 133 1329 l 107 1285 l 81 1329 z "},"ě":{"ha":250,"x_min":0,"x_max":0,"o":"m 0 150 b 118 0 0 44 54 -6 b 214 110 172 6 214 54 l 214 500 l 125 500 l 125 125 b 111 107 125 117 119 110 b 89 125 100 106 89 114 l 89 535 l 214 535 l 214 857 b 108 963 214 915 167 963 b 0 854 49 963 0 914 z m 31 1115 l 88 1015 l 126 1015 l 183 1117 l 144 1115 l 133 1115 l 107 1071 l 81 1115 z m 89 839 b 107 856 89 847 97 856 b 125 838 117 856 125 847 l 125 642 l 89 642 z "},"Ĝ":{"ha":250,"x_min":0,"x_max":0,"o":"m 0 1069 l 0 107 b 107 0 0 47 47 0 b 214 107 165 0 214 47 l 214 785 l 107 785 l 107 731 l 125 731 l 125 125 b 107 107 125 115 117 107 b 89 125 97 107 89 115 l 89 1051 b 107 1069 89 1061 97 1069 b 125 1051 117 1069 125 1061 l 125 819 l 214 819 l 214 1069 b 107 1176 214 1128 165 1176 b 0 1069 47 1176 0 1128 z m 31 1229 l 81 1229 l 107 1275 l 133 1229 l 183 1229 l 126 1329 l 88 1329 z "},"ĝ":{"ha":250,"x_min":0,"x_max":0,"o":"m 0 107 b 107 0 0 47 49 0 l 125 0 l 125 -89 b 107 -107 125 -99 117 -107 b 89 -89 97 -107 89 -99 l 89 -35 l 0 -35 l 0 -107 b 107 -214 0 -167 47 -214 b 214 -107 165 -214 214 -167 l 214 963 l 103 963 b 0 857 46 961 0 914 z m 89 849 b 107 865 89 858 97 865 l 125 865 l 125 107 l 104 107 b 89 125 96 108 89 115 z m 69 1015 l 81 1015 l 107 1061 l 133 1015 l 183 1015 l 126 1117 l 88 1117 l 31 1015 z "},"Ğ":{"ha":250,"x_min":0,"x_max":0,"o":"m 0 1069 l 0 107 b 107 0 0 47 47 0 b 214 107 165 0 214 47 l 214 785 l 107 785 l 107 731 l 125 731 l 125 125 b 107 107 125 115 117 107 b 89 125 97 107 89 115 l 89 1051 b 107 1069 89 1061 97 1069 b 125 1051 117 1069 125 1061 l 125 819 l 214 819 l 214 1069 b 107 1176 214 1128 165 1176 b 0 1069 47 1176 0 1128 z m 46 1313 b 107 1254 47 1279 75 1254 b 168 1313 139 1254 167 1279 l 124 1313 b 107 1297 122 1304 115 1297 b 90 1313 99 1297 92 1304 z "},"ğ":{"ha":250,"x_min":0,"x_max":0,"o":"m 107 0 l 125 0 l 125 -89 b 107 -107 125 -99 117 -107 b 89 -89 97 -107 89 -99 l 89 -35 l 0 -35 l 0 -107 b 107 -214 0 -167 47 -214 b 214 -107 165 -214 214 -167 l 214 963 l 103 963 b 0 857 46 961 0 914 l 0 107 b 107 0 0 47 49 0 z m 107 865 l 125 865 l 125 107 l 104 107 b 89 125 96 108 89 115 l 89 849 b 107 865 89 858 97 865 z m 46 1069 b 107 1011 47 1038 75 1011 b 168 1069 139 1011 167 1038 l 124 1069 b 107 1056 122 1061 115 1056 b 90 1069 99 1056 92 1061 z "},"Ġ":{"ha":250,"x_min":0,"x_max":0,"o":"m 0 1069 l 0 107 b 107 0 0 47 47 0 b 214 107 167 0 214 47 l 214 785 l 107 785 l 107 732 l 125 732 l 125 125 b 107 107 125 115 117 107 b 89 125 97 107 89 115 l 89 1053 b 107 1069 89 1061 97 1069 b 125 1053 117 1069 125 1061 l 125 819 l 214 819 l 214 1069 b 107 1176 214 1129 167 1176 b 0 1069 47 1176 0 1129 z m 79 1254 l 135 1254 l 135 1310 l 79 1310 z "},"ġ":{"ha":250,"x_min":0,"x_max":0,"o":"m 107 -214 b 214 -107 165 -214 214 -167 l 214 963 l 103 963 b 0 856 46 960 0 914 l 0 107 b 107 0 0 47 47 0 l 125 0 l 125 -89 b 107 -107 125 -99 117 -107 b 89 -89 97 -107 89 -99 l 89 -35 l 0 -35 l 0 -107 b 107 -214 0 -167 47 -214 z m 89 849 b 107 865 89 858 97 865 l 125 865 l 125 107 l 104 107 b 89 125 96 108 89 115 z m 135 1092 l 79 1092 l 79 1036 l 135 1036 z "},"Ģ":{"ha":250,"x_min":0,"x_max":0,"o":"m 0 1069 l 0 107 b 107 0 0 47 47 0 b 214 107 165 0 214 47 l 214 785 l 107 785 l 107 731 l 125 731 l 125 124 b 107 107 125 114 117 107 b 89 124 97 107 89 114 l 89 1051 b 107 1068 89 1061 97 1068 b 125 1051 117 1068 125 1061 l 125 819 l 214 819 l 214 1069 b 107 1176 214 1128 165 1176 b 0 1069 47 1176 0 1128 z m 92 -93 l 64 -132 l 96 -154 l 150 -76 l 118 -54 l 64 -54 l 64 -93 z "},"ģ":{"ha":250,"x_min":0,"x_max":0,"o":"m 107 -214 b 214 -107 165 -214 214 -167 l 214 963 l 103 963 b 0 857 46 961 0 914 l 0 107 b 107 0 0 47 49 0 l 125 0 l 125 -89 b 107 -107 125 -99 117 -107 b 89 -89 97 -107 89 -99 l 89 -35 l 0 -35 l 0 -107 b 107 -214 0 -167 47 -214 z m 89 849 b 107 865 89 858 97 865 l 125 865 l 125 107 l 104 107 b 89 125 96 108 89 115 z m 64 1119 l 64 1081 l 92 1081 l 64 1042 l 96 1019 l 150 1097 l 118 1119 z "},"Ĥ":{"ha":250,"x_min":0,"x_max":0,"o":"m 89 0 l 89 749 l 125 749 l 125 0 l 214 0 l 214 1176 l 125 1176 l 125 856 l 89 856 l 89 1176 l 0 1176 l 0 0 z m 31 1229 l 81 1229 l 107 1275 l 133 1229 l 183 1229 l 126 1329 l 88 1329 z "},"ĥ":{"ha":250,"x_min":0,"x_max":0,"o":"m 0 1176 l 0 0 l 89 0 l 89 865 l 107 865 b 125 849 117 865 125 858 l 125 0 l 214 0 l 214 857 b 107 963 214 915 167 963 l 89 963 l 89 1176 z m 31 1229 l 81 1229 l 107 1275 l 133 1229 l 183 1229 l 126 1331 l 88 1331 z "},"Ħ":{"ha":285,"x_min":0,"x_max":0,"o":"m 0 985 l 0 940 l 18 940 l 18 0 l 107 0 l 107 749 l 142 749 l 142 0 l 232 0 l 232 940 l 249 940 l 249 985 l 232 985 l 232 1176 l 142 1176 l 142 985 l 107 985 l 107 1176 l 18 1176 l 18 985 z m 142 940 l 142 856 l 107 856 l 107 940 z "},"ħ":{"ha":283,"x_min":0,"x_max":0,"o":"m 0 1090 l 0 1047 l 33 1047 l 33 0 l 124 0 l 124 865 l 140 865 b 158 849 150 865 158 858 l 158 0 l 247 0 l 247 857 b 142 963 247 915 200 963 l 124 963 l 124 1047 l 161 1047 l 161 1090 l 124 1090 l 124 1176 l 33 1176 l 33 1090 z "},"Ĩ":{"ha":224,"x_min":0,"x_max":0,"o":"m 46 0 l 153 0 l 153 1176 l 46 1176 z m 0 1304 b 61 1243 0 1271 28 1243 b 100 1257 75 1243 89 1247 b 113 1269 106 1261 108 1267 b 122 1279 117 1275 118 1278 b 136 1276 126 1281 132 1279 b 144 1263 140 1274 144 1268 l 188 1263 b 160 1314 188 1283 176 1303 b 108 1321 144 1324 125 1325 b 79 1299 93 1315 85 1306 b 72 1290 76 1294 74 1293 b 51 1289 67 1286 58 1286 b 43 1304 47 1293 43 1299 z "},"ĩ":{"ha":224,"x_min":0,"x_max":0,"o":"m 40 963 l 40 0 l 147 0 l 147 963 z m 28 1092 b 61 1082 39 1086 50 1082 b 100 1096 75 1082 89 1088 b 113 1110 106 1101 108 1106 b 122 1118 117 1115 118 1117 b 136 1117 126 1119 132 1119 b 144 1101 140 1113 144 1107 l 188 1101 b 160 1153 188 1122 176 1142 b 108 1160 144 1163 125 1165 b 79 1138 93 1154 85 1144 l 72 1131 b 51 1129 67 1125 58 1125 b 43 1143 47 1132 43 1138 l 0 1143 b 28 1092 0 1122 11 1103 z "},"Ī":{"ha":143,"x_min":0,"x_max":0,"o":"m 0 1176 l 0 0 l 107 0 l 107 1176 z m 107 1261 l 107 1306 l 0 1306 l 0 1261 z "},"ī":{"ha":143,"x_min":0,"x_max":0,"o":"m 0 963 l 0 0 l 107 0 l 107 963 z m 107 1101 l 107 1144 l 0 1144 l 0 1101 z "},"Ĭ":{"ha":157,"x_min":0,"x_max":0,"o":"m 7 1176 l 7 0 l 114 0 l 114 1176 z m 44 1313 l 0 1313 b 61 1254 1 1279 28 1254 b 121 1313 93 1254 119 1279 l 78 1313 b 61 1297 76 1304 69 1297 b 44 1313 53 1297 46 1304 z "},"ĭ":{"ha":157,"x_min":0,"x_max":0,"o":"m 7 963 l 7 0 l 114 0 l 114 963 z m 44 1151 l 0 1151 b 61 1093 1 1119 28 1093 b 121 1151 93 1093 119 1119 l 78 1151 b 61 1138 76 1143 69 1138 b 44 1151 53 1138 46 1143 z "},"Į":{"ha":143,"x_min":0,"x_max":0,"o":"m 61 -75 b 119 -28 89 -75 114 -56 l 78 -14 b 61 -32 78 -24 71 -32 b 43 -14 51 -32 43 -24 b 53 1 43 -8 47 -3 l 114 1 l 114 1176 l 7 1176 l 7 14 b 0 -14 3 6 0 -4 b 61 -75 0 -47 28 -75 z "},"į":{"ha":149,"x_min":0,"x_max":0,"o":"m 54 -76 b 113 -29 82 -76 107 -57 l 71 -15 b 54 -33 71 -25 64 -33 b 36 -15 44 -33 36 -25 b 46 0 36 -10 40 -4 l 107 0 l 107 963 l 0 963 l 0 11 b -7 -15 -4 4 -7 -6 b 54 -76 -7 -49 21 -76 z m 25 1096 l 81 1096 l 81 1151 l 25 1151 z "},"İ":{"ha":143,"x_min":0,"x_max":0,"o":"m 107 1176 l 0 1176 l 0 0 l 107 0 z "},"Ĳ":{"ha":375,"x_min":0,"x_max":0,"o":"m 125 107 b 232 0 125 47 172 0 b 339 107 290 0 339 47 l 339 1176 l 125 1176 l 125 1069 l 249 1069 l 249 125 b 232 107 249 115 242 107 b 214 125 222 107 214 115 l 214 801 l 125 801 z m 0 0 l 107 0 l 107 1176 l 0 1176 z "},"ĳ":{"ha":357,"x_min":0,"x_max":0,"o":"m 107 589 l 107 -106 b 214 -212 107 -165 154 -212 b 321 -106 274 -212 321 -165 l 321 964 l 232 964 l 232 -87 b 214 -106 232 -97 224 -106 b 196 -87 204 -106 196 -97 l 196 589 z m 0 1 l 89 1 l 89 964 l 0 964 z m 321 1071 l 321 1178 l 232 1178 l 232 1071 z m 0 1178 l 0 1071 l 89 1071 l 89 1178 z "},"Ĵ":{"ha":250,"x_min":0,"x_max":0,"o":"m 125 1069 l 125 125 b 107 107 125 115 117 107 b 89 125 97 107 89 115 l 89 801 l 0 801 l 0 107 b 107 0 0 47 47 0 b 214 107 165 0 214 47 l 214 1176 l 0 1176 l 0 1069 z m 31 1233 l 81 1233 l 107 1278 l 133 1233 l 183 1233 l 126 1333 l 88 1333 z "},"ĵ":{"ha":272,"x_min":0,"x_max":0,"o":"m 0 589 l 0 -106 b 107 -212 0 -165 47 -212 b 214 -106 165 -212 214 -165 l 214 964 l 125 964 l 125 -87 b 107 -106 125 -97 117 -106 b 89 -87 97 -106 89 -97 l 89 589 z m 85 1078 l 135 1078 l 160 1122 l 186 1078 l 236 1078 l 179 1178 l 142 1178 z "},"Ķ":{"ha":250,"x_min":0,"x_max":0,"o":"m 0 0 l 89 0 l 89 731 b 107 749 89 740 97 749 b 125 731 117 749 125 740 l 125 0 l 214 0 l 214 756 b 161 801 211 782 189 801 b 214 854 190 801 214 825 l 214 1176 l 125 1176 l 125 872 b 107 856 125 863 117 856 b 89 872 97 856 89 863 l 89 1176 l 0 1176 z m 64 -132 l 96 -154 l 150 -76 l 118 -54 l 64 -54 l 64 -93 l 92 -93 z "},"ķ":{"ha":250,"x_min":0,"x_max":0,"o":"m 89 0 l 89 517 b 107 535 89 526 97 535 b 125 517 117 535 125 526 l 125 0 l 214 0 l 214 542 b 161 588 211 568 189 588 b 214 640 190 588 214 611 l 214 963 l 125 963 l 125 658 b 107 642 125 649 117 642 b 89 658 97 642 89 649 l 89 1176 l 0 1176 l 0 0 z m 92 -92 l 64 -131 l 96 -153 l 150 -75 l 118 -53 l 64 -53 l 64 -92 z "},"ĸ":{"ha":250,"x_min":0,"x_max":0,"o":"m 89 0 l 89 303 b 107 321 89 313 97 321 b 125 303 117 321 125 313 l 125 0 l 214 0 l 214 328 b 161 375 211 354 189 375 b 214 428 190 375 214 399 l 214 749 l 125 749 l 125 446 b 107 428 125 436 117 428 b 89 446 97 428 89 436 l 89 749 l 0 749 l 0 0 z "},"Ĺ":{"ha":250,"x_min":0,"x_max":0,"o":"m 0 0 l 214 0 l 214 107 l 107 107 l 107 1176 l 0 1176 z m 76 1336 l 0 1260 l 32 1229 l 107 1306 z "},"ĺ":{"ha":143,"x_min":0,"x_max":0,"o":"m 0 0 l 107 0 l 107 1176 l 0 1176 z m 76 1335 l 0 1258 l 31 1228 l 107 1304 z "},"Ļ":{"ha":250,"x_min":0,"x_max":0,"o":"m 214 0 l 214 107 l 107 107 l 107 1176 l 0 1176 l 0 0 z m 96 -154 l 150 -76 l 118 -54 l 64 -54 l 64 -93 l 92 -93 l 64 -132 z "},"ļ":{"ha":143,"x_min":0,"x_max":0,"o":"m 0 0 l 107 0 l 107 1176 l 0 1176 z m 42 -153 l 97 -75 l 65 -53 l 10 -53 l 10 -92 l 38 -92 l 10 -131 z "},"Ľ":{"ha":250,"x_min":0,"x_max":0,"o":"m 0 1176 l 0 0 l 214 0 l 214 107 l 107 107 l 107 1176 z m 128 1176 l 128 1138 l 154 1138 l 128 1099 l 158 1076 l 214 1154 l 182 1176 z "},"ľ":{"ha":250,"x_min":0,"x_max":0,"o":"m 0 0 l 107 0 l 107 1176 l 0 1176 z m 158 1076 l 214 1154 l 182 1176 l 128 1176 l 128 1138 l 154 1138 l 128 1099 z "},"Ŀ":{"ha":250,"x_min":0,"x_max":0,"o":"m 0 0 l 214 0 l 214 107 l 107 107 l 107 1176 l 0 1176 z m 164 833 l 164 778 l 219 778 l 219 833 z "},"ŀ":{"ha":228,"x_min":0,"x_max":0,"o":"m 0 1176 l 0 0 l 107 0 l 107 1176 z m 142 560 l 197 560 l 197 615 l 142 615 z "},"Ł":{"ha":299,"x_min":0,"x_max":0,"o":"m 0 733 l 31 703 l 49 721 l 49 0 l 263 0 l 263 107 l 156 107 l 156 826 l 207 878 l 176 910 l 156 889 l 156 1176 l 49 1176 l 49 782 z "},"Ń":{"ha":250,"x_min":0,"x_max":0,"o":"m 0 1176 l 0 0 l 89 0 l 89 1069 l 107 1069 b 125 1051 117 1069 125 1061 l 125 0 l 214 0 l 214 1069 b 107 1176 214 1128 167 1176 z m 54 1260 l 85 1229 l 160 1306 l 129 1336 z "},"ń":{"ha":250,"x_min":0,"x_max":0,"o":"m 0 963 l 0 0 l 89 0 l 89 856 l 107 856 b 125 838 117 856 125 847 l 125 0 l 214 0 l 214 856 b 107 963 214 915 167 963 z m 129 1118 l 54 1043 l 85 1013 l 160 1088 z "},"Ņ":{"ha":250,"x_min":0,"x_max":0,"o":"m 0 1176 l 0 0 l 89 0 l 89 1068 l 107 1068 b 125 1051 117 1068 125 1061 l 125 0 l 214 0 l 214 1069 b 107 1176 214 1128 167 1176 z m 64 -93 l 92 -93 l 64 -132 l 96 -154 l 150 -76 l 118 -54 l 64 -54 z "},"ņ":{"ha":250,"x_min":0,"x_max":0,"o":"m 0 0 l 89 0 l 89 856 l 107 856 b 125 838 117 856 125 847 l 125 0 l 214 0 l 214 856 b 107 963 214 915 167 963 l 0 963 z m 64 -53 l 64 -92 l 92 -92 l 64 -131 l 96 -153 l 150 -75 l 118 -53 z "},"Ň":{"ha":250,"x_min":0,"x_max":0,"o":"m 89 0 l 89 1069 l 107 1069 b 125 1051 117 1069 125 1061 l 125 0 l 214 0 l 214 1069 b 107 1176 214 1129 167 1176 l 0 1176 l 0 0 z m 31 1328 l 88 1228 l 126 1228 l 183 1328 l 133 1328 l 107 1283 l 81 1328 z "},"ň":{"ha":250,"x_min":0,"x_max":0,"o":"m 89 0 l 89 856 l 107 856 b 125 838 117 856 125 847 l 125 0 l 214 0 l 214 856 b 107 963 214 915 167 963 l 0 963 l 0 0 z m 31 1119 l 88 1019 l 126 1019 l 183 1119 l 133 1119 l 107 1075 l 81 1119 z "},"ŉ":{"ha":293,"x_min":0,"x_max":0,"o":"m 43 963 l 43 0 l 133 0 l 133 856 l 150 856 b 168 838 160 856 168 847 l 168 0 l 257 0 l 257 856 b 150 963 257 915 210 963 z m 28 1081 l 0 1042 l 32 1019 l 86 1097 l 56 1119 l 0 1119 l 0 1081 z "},"Ŋ":{"ha":250,"x_min":0,"x_max":0,"o":"m 89 0 l 89 1069 l 107 1069 b 125 1051 117 1069 125 1061 l 125 -47 b 107 -65 125 -57 117 -65 l 89 -65 l 89 -154 l 125 -154 b 214 -65 174 -154 214 -114 l 214 1069 b 107 1176 214 1128 167 1176 l 0 1176 l 0 0 z "},"ŋ":{"ha":250,"x_min":0,"x_max":0,"o":"m 89 0 l 89 854 l 107 854 b 125 836 117 854 125 846 l 125 -47 b 107 -65 125 -57 117 -65 l 89 -65 l 89 -154 l 125 -154 b 214 -65 174 -154 214 -114 l 214 854 b 107 961 214 914 167 961 l 0 961 l 0 0 z "},"Ō":{"ha":250,"x_min":0,"x_max":0,"o":"m 107 0 b 214 107 167 0 214 47 l 214 1069 b 107 1176 214 1129 167 1176 b 0 1069 47 1176 0 1129 l 0 107 b 107 0 0 47 47 0 z m 89 1051 b 107 1069 89 1061 97 1069 b 125 1051 117 1069 125 1061 l 125 125 b 107 107 125 115 117 107 b 89 125 97 107 89 115 z m 56 1261 l 163 1261 l 163 1306 l 56 1306 z "},"ō":{"ha":250,"x_min":0,"x_max":0,"o":"m 107 0 b 214 107 167 0 214 47 l 214 856 b 107 963 214 915 167 963 b 0 856 47 963 0 915 l 0 107 b 107 0 0 47 47 0 z m 89 838 b 107 856 89 847 97 856 b 125 838 117 856 125 847 l 125 125 b 107 107 125 115 117 107 b 89 125 97 107 89 115 z m 53 1015 l 161 1015 l 161 1058 l 53 1058 z "},"Ŏ":{"ha":250,"x_min":0,"x_max":0,"o":"m 0 107 b 107 0 0 47 47 0 b 214 107 167 0 214 47 l 214 1069 b 107 1176 214 1129 167 1176 b 0 1069 47 1176 0 1129 z m 89 125 l 89 1051 b 107 1069 89 1061 97 1069 b 125 1051 117 1069 125 1061 l 125 125 b 107 107 125 115 117 107 b 89 125 97 107 89 115 z m 107 1254 b 168 1313 139 1254 167 1281 l 124 1313 b 107 1299 122 1304 115 1299 b 90 1313 99 1299 92 1304 l 46 1313 b 107 1254 47 1281 75 1254 z "},"ŏ":{"ha":250,"x_min":0,"x_max":0,"o":"m 0 107 b 107 0 0 47 47 0 b 214 107 167 0 214 47 l 214 856 b 107 963 214 915 167 963 b 0 856 47 963 0 915 z m 89 125 l 89 838 b 107 856 89 847 97 856 b 125 838 117 856 125 847 l 125 125 b 107 107 125 115 117 107 b 89 125 97 107 89 115 z m 107 1015 b 168 1072 140 1015 167 1040 l 124 1072 b 107 1058 122 1065 115 1058 b 90 1072 99 1058 92 1065 l 46 1072 b 107 1015 47 1040 75 1015 z "},"Ő":{"ha":250,"x_min":0,"x_max":0,"o":"m 107 0 b 214 107 167 0 214 47 l 214 1069 b 107 1176 214 1129 167 1176 b 0 1069 47 1176 0 1129 l 0 107 b 107 0 0 47 47 0 z m 89 125 l 89 1051 b 107 1069 89 1061 97 1069 b 125 1051 117 1069 125 1061 l 125 125 b 107 107 125 115 117 107 b 89 125 97 107 89 115 z m 132 1335 l 113 1228 l 157 1228 l 175 1335 z m 39 1228 l 82 1228 l 101 1335 l 57 1335 z "},"ő":{"ha":250,"x_min":0,"x_max":0,"o":"m 107 0 b 214 107 167 0 214 47 l 214 856 b 107 963 214 915 167 963 b 0 856 47 963 0 915 l 0 107 b 107 0 0 47 47 0 z m 89 838 b 107 856 89 847 97 856 b 125 838 117 856 125 847 l 125 125 b 107 107 125 115 117 107 b 89 125 97 107 89 115 z m 113 1015 l 157 1015 l 175 1122 l 132 1122 z m 39 1015 l 82 1015 l 101 1122 l 57 1122 z "},"Ŕ":{"ha":250,"x_min":0,"x_max":0,"o":"m 0 0 l 89 0 l 89 749 l 107 749 b 125 731 117 749 125 740 l 125 0 l 214 0 l 214 750 b 161 803 214 779 190 803 b 214 856 190 803 214 826 l 214 1069 b 107 1176 214 1129 167 1176 l 0 1176 z m 89 856 l 89 1069 l 107 1069 b 125 1051 117 1069 125 1061 l 125 874 b 107 856 125 864 117 856 z m 54 1257 l 85 1225 l 160 1301 l 129 1332 z "},"ŕ":{"ha":250,"x_min":0,"x_max":0,"o":"m 0 0 l 89 0 l 89 856 l 107 856 b 125 839 117 856 125 849 l 125 642 l 214 642 l 214 856 b 107 964 214 915 167 964 l 0 964 z m 129 1118 l 54 1043 l 85 1013 l 160 1088 z "},"Ŗ":{"ha":250,"x_min":0,"x_max":0,"o":"m 0 0 l 89 0 l 89 749 l 107 749 b 125 731 117 749 125 740 l 125 0 l 214 0 l 214 750 b 161 803 214 779 190 803 b 214 856 190 803 214 826 l 214 1069 b 107 1176 214 1128 167 1176 l 0 1176 z m 89 1069 l 107 1069 b 125 1051 117 1069 125 1061 l 125 872 b 107 856 125 864 117 856 l 89 856 z m 96 -154 l 150 -76 l 118 -54 l 64 -54 l 64 -93 l 92 -93 l 64 -132 z "},"ŗ":{"ha":250,"x_min":0,"x_max":0,"o":"m 0 0 l 89 0 l 89 856 l 107 856 b 125 839 117 856 125 849 l 125 642 l 214 642 l 214 856 b 107 963 214 915 167 963 l 0 963 z m 128 -53 l 128 -92 l 154 -92 l 128 -131 l 160 -153 l 214 -75 l 182 -53 z "},"Ř":{"ha":250,"x_min":0,"x_max":0,"o":"m 0 0 l 89 0 l 89 749 l 107 749 b 125 731 117 749 125 740 l 125 0 l 214 0 l 214 750 b 161 803 214 779 190 803 b 214 856 190 803 214 826 l 214 1069 b 107 1176 214 1129 167 1176 l 0 1176 z m 31 1328 l 88 1228 l 126 1228 l 183 1328 l 133 1328 l 107 1283 l 81 1328 z m 89 1069 l 107 1069 b 125 1051 117 1069 125 1061 l 125 874 b 107 856 125 864 117 856 l 89 856 z "},"ř":{"ha":250,"x_min":0,"x_max":0,"o":"m 0 0 l 89 0 l 89 857 l 107 857 b 125 839 117 857 125 849 l 125 642 l 214 642 l 214 857 b 107 964 214 915 167 964 l 0 964 z m 88 1019 l 126 1019 l 183 1121 l 133 1121 l 107 1075 l 81 1121 l 31 1121 z "},"Ś":{"ha":250,"x_min":0,"x_max":0,"o":"m 0 107 b 107 0 0 47 47 0 b 214 107 167 0 214 47 l 214 740 b 107 847 214 799 167 847 b 89 864 97 847 89 854 l 89 1053 b 107 1069 89 1061 97 1069 b 125 1053 117 1069 125 1061 l 125 864 l 214 864 l 214 1069 b 107 1176 214 1129 167 1176 b 0 1069 47 1176 0 1129 l 0 864 b 107 757 0 806 47 757 b 125 740 117 757 125 750 l 125 125 b 107 107 125 115 117 107 b 89 125 97 107 89 115 l 89 740 l 0 740 z m 129 1332 l 54 1257 l 85 1225 l 160 1301 z "},"ś":{"ha":250,"x_min":0,"x_max":0,"o":"m 0 107 b 107 0 0 47 47 0 b 214 107 167 0 214 47 l 214 526 b 107 633 214 586 167 633 b 89 651 97 633 89 642 l 89 839 b 107 857 89 849 97 857 b 125 839 117 857 125 849 l 125 651 l 214 651 l 214 857 b 107 964 214 915 167 964 b 0 857 47 964 0 915 l 0 651 b 107 544 0 592 47 544 b 125 526 117 544 125 536 l 125 125 b 107 107 125 115 117 107 b 89 125 97 107 89 115 l 89 526 l 0 526 z m 129 1119 l 54 1043 l 85 1013 l 160 1089 z "},"Ŝ":{"ha":250,"x_min":0,"x_max":0,"o":"m 107 0 b 214 107 167 0 214 47 l 214 740 b 107 847 214 799 167 847 b 89 864 97 847 89 854 l 89 1053 b 107 1069 89 1061 97 1069 b 125 1053 117 1069 125 1061 l 125 864 l 214 864 l 214 1069 b 107 1176 214 1129 167 1176 b 0 1069 47 1176 0 1129 l 0 864 b 107 757 0 806 47 757 b 125 740 117 757 125 750 l 125 125 b 107 107 125 115 117 107 b 89 125 97 107 89 115 l 89 740 l 0 740 l 0 107 b 107 0 0 47 47 0 z m 31 1228 l 81 1228 l 107 1274 l 133 1228 l 183 1228 l 126 1328 l 88 1328 z "},"ŝ":{"ha":250,"x_min":0,"x_max":0,"o":"m 107 0 b 214 107 167 0 214 47 l 214 526 b 107 633 214 586 167 633 b 89 651 97 633 89 642 l 89 839 b 107 857 89 849 97 857 b 125 839 117 857 125 849 l 125 651 l 214 651 l 214 857 b 107 964 214 915 167 964 b 0 857 47 964 0 915 l 0 651 b 107 544 0 592 47 544 b 125 526 117 544 125 536 l 125 125 b 107 107 125 115 117 107 b 89 125 97 107 89 115 l 89 526 l 0 526 l 0 107 b 107 0 0 47 47 0 z m 31 1021 l 81 1021 l 107 1065 l 133 1021 l 183 1021 l 126 1121 l 88 1121 z "},"Ş":{"ha":250,"x_min":0,"x_max":0,"o":"m 107 0 l 114 0 b 124 -15 119 -3 124 -8 b 106 -33 124 -25 115 -33 b 89 -15 97 -33 89 -25 l 47 -29 b 106 -76 53 -57 78 -76 b 167 -15 140 -76 167 -49 b 160 14 167 -6 164 4 b 214 107 192 32 214 67 l 214 740 b 107 847 214 799 167 846 b 89 864 97 847 89 854 l 89 1051 b 107 1069 89 1061 97 1069 b 125 1051 117 1069 125 1061 l 125 864 l 214 864 l 214 1069 b 107 1176 214 1129 167 1176 b 0 1069 47 1176 0 1129 l 0 864 b 107 757 0 806 47 757 b 125 740 117 757 125 749 l 125 125 b 107 107 125 115 117 107 b 89 125 97 107 89 115 l 89 740 l 0 740 l 0 107 b 107 0 0 47 47 0 z "},"ş":{"ha":250,"x_min":0,"x_max":0,"o":"m 107 -1 l 115 -1 b 124 -15 119 -4 124 -10 b 106 -33 124 -25 115 -33 b 89 -15 97 -33 89 -25 l 47 -29 b 106 -76 53 -57 78 -76 b 167 -15 140 -76 167 -49 b 160 13 167 -6 164 4 b 214 106 192 31 214 65 l 214 525 b 107 632 214 585 167 632 b 89 650 97 632 89 640 l 89 838 b 107 856 89 847 97 856 b 125 838 117 856 125 847 l 125 650 l 214 650 l 214 856 b 107 963 214 914 167 963 b 0 856 47 963 0 914 l 0 650 b 107 543 0 590 47 543 b 125 525 117 543 125 535 l 125 124 b 107 106 125 114 117 106 b 89 124 97 106 89 114 l 89 525 l 0 525 l 0 106 b 107 -1 0 47 47 -1 z "},"Ţ":{"ha":250,"x_min":0,"x_max":0,"o":"m 0 1069 l 63 1069 l 63 0 l 114 0 b 124 -15 119 -3 124 -8 b 106 -33 124 -25 115 -33 b 89 -15 97 -33 89 -25 l 47 -29 b 106 -76 53 -57 78 -76 b 167 -15 140 -76 167 -49 b 151 25 167 0 161 14 l 151 1069 l 214 1069 l 214 1176 l 0 1176 z "},"ţ":{"ha":250,"x_min":0,"x_max":0,"o":"m 0 1176 l 0 106 b 107 -1 0 47 47 -1 l 115 -1 b 124 -15 119 -4 124 -10 b 106 -33 124 -25 115 -33 b 89 -15 97 -33 89 -25 l 47 -29 b 106 -76 53 -57 78 -76 b 167 -15 140 -76 167 -49 b 160 13 167 -6 164 4 b 214 106 192 31 214 65 l 214 821 l 125 821 l 125 124 b 107 106 125 114 117 106 b 89 124 97 106 89 114 l 89 856 l 214 856 l 214 963 l 89 963 l 89 1176 z "},"Ť":{"ha":250,"x_min":0,"x_max":0,"o":"m 0 1176 l 0 1069 l 63 1069 l 63 0 l 151 0 l 151 1069 l 214 1069 l 214 1176 z m 31 1328 l 88 1228 l 126 1228 l 183 1328 l 133 1328 l 107 1283 l 81 1328 z "},"ť":{"ha":250,"x_min":0,"x_max":0,"o":"m 0 107 b 107 0 0 47 47 0 b 214 107 167 0 214 47 l 214 821 l 125 821 l 125 125 b 107 107 125 115 117 107 b 89 125 97 107 89 115 l 89 857 l 214 857 l 214 964 l 89 964 l 89 1175 l 0 1175 z m 128 1178 l 128 1139 l 154 1139 l 128 1100 l 160 1078 l 214 1156 l 182 1178 z "},"Ŧ":{"ha":250,"x_min":0,"x_max":0,"o":"m 0 1176 l 0 1069 l 63 1069 l 63 824 l 26 824 l 26 781 l 63 781 l 63 0 l 151 0 l 151 781 l 188 781 l 188 824 l 151 824 l 151 1069 l 214 1069 l 214 1176 z "},"Ũ":{"ha":250,"x_min":0,"x_max":0,"o":"m 0 1176 l 0 107 b 107 0 0 47 47 0 b 214 107 167 0 214 47 l 214 1176 l 125 1176 l 125 125 b 107 107 125 115 117 107 b 89 125 97 107 89 115 l 89 1176 z m 57 1286 l 13 1286 b 74 1225 13 1254 42 1225 b 113 1239 88 1225 101 1231 b 125 1253 118 1244 122 1249 b 135 1261 131 1258 132 1260 b 149 1260 139 1263 144 1261 b 157 1244 154 1256 157 1250 l 201 1244 b 172 1296 201 1265 190 1285 b 122 1303 157 1306 139 1308 b 92 1281 107 1297 99 1288 b 85 1272 89 1278 88 1275 b 65 1272 79 1268 71 1268 b 57 1286 60 1275 57 1281 z "},"ũ":{"ha":250,"x_min":0,"x_max":0,"o":"m 0 963 l 0 107 b 107 0 0 47 47 0 b 214 107 167 0 214 47 l 214 963 l 125 963 l 125 125 b 107 107 125 115 117 107 b 89 125 97 107 89 115 l 89 963 z m 57 1076 l 13 1076 b 74 1017 13 1042 40 1017 b 113 1031 88 1017 101 1021 b 125 1043 118 1035 122 1039 b 135 1051 131 1049 132 1050 b 149 1050 140 1053 144 1053 b 157 1035 154 1046 157 1042 l 201 1035 b 172 1086 201 1056 190 1075 b 122 1093 157 1096 139 1099 b 92 1071 107 1089 99 1078 b 85 1064 89 1068 88 1065 b 65 1063 79 1058 71 1058 b 57 1076 60 1065 57 1071 z "},"Ū":{"ha":250,"x_min":0,"x_max":0,"o":"m 0 1069 l 0 107 b 107 0 0 47 47 0 b 214 107 167 0 214 47 l 214 1176 l 125 1176 l 125 125 b 107 107 125 115 117 107 b 89 125 97 107 89 115 l 89 1176 l 0 1176 z m 161 1306 l 53 1306 l 53 1261 l 161 1261 z "},"ū":{"ha":250,"x_min":0,"x_max":0,"o":"m 0 856 l 0 107 b 107 0 0 47 47 0 b 214 107 167 0 214 47 l 214 963 l 125 963 l 125 125 b 107 107 125 115 117 107 b 89 125 97 107 89 115 l 89 963 l 0 963 z m 161 1060 l 54 1060 l 54 1017 l 161 1017 z "},"Ŭ":{"ha":250,"x_min":0,"x_max":0,"o":"m 0 1069 l 0 107 b 107 0 0 47 47 0 b 214 107 167 0 214 47 l 214 1176 l 125 1176 l 125 125 b 107 107 125 115 117 107 b 89 125 97 107 89 115 l 89 1176 l 0 1176 z m 46 1313 b 107 1254 47 1281 75 1254 b 168 1313 139 1254 167 1281 l 124 1313 b 107 1299 122 1304 115 1299 b 90 1313 99 1299 92 1304 z "},"ŭ":{"ha":250,"x_min":0,"x_max":0,"o":"m 0 856 l 0 107 b 107 0 0 47 47 0 b 214 107 167 0 214 47 l 214 963 l 125 963 l 125 125 b 107 107 125 115 117 107 b 89 125 97 107 89 115 l 89 963 l 0 963 z m 46 1074 b 107 1017 47 1042 75 1017 b 168 1074 140 1017 167 1042 l 124 1074 b 107 1060 122 1065 115 1060 b 90 1074 99 1060 92 1065 z "},"Ů":{"ha":250,"x_min":0,"x_max":0,"o":"m 107 0 b 214 107 167 0 214 47 l 214 1176 l 125 1176 l 125 125 b 107 107 125 115 117 107 b 89 125 97 107 89 115 l 89 1176 l 0 1176 l 0 107 b 107 0 0 47 47 0 z m 46 1283 b 107 1222 46 1250 74 1222 b 168 1283 140 1222 168 1250 b 107 1344 168 1317 140 1344 b 46 1283 74 1344 46 1317 z m 90 1283 b 107 1300 90 1293 97 1300 b 124 1283 117 1300 124 1293 b 107 1267 124 1274 117 1267 b 90 1283 97 1267 90 1274 z "},"ů":{"ha":250,"x_min":0,"x_max":0,"o":"m 107 0 b 214 107 167 0 214 47 l 214 963 l 125 963 l 125 125 b 107 107 125 115 117 107 b 89 125 97 107 89 115 l 89 963 l 0 963 l 0 107 b 107 0 0 47 47 0 z m 46 1076 b 107 1017 46 1043 74 1017 b 168 1076 140 1017 168 1043 b 107 1138 168 1110 140 1138 b 46 1076 74 1138 46 1110 z m 90 1076 b 107 1094 90 1086 97 1094 b 124 1076 117 1094 124 1086 b 107 1060 124 1068 117 1060 b 90 1076 97 1060 90 1068 z "},"Ű":{"ha":250,"x_min":0,"x_max":0,"o":"m 0 1069 l 0 107 b 107 0 0 47 47 0 b 214 107 167 0 214 47 l 214 1176 l 125 1176 l 125 125 b 107 107 125 115 117 107 b 89 125 97 107 89 115 l 89 1176 l 0 1176 z m 113 1228 l 157 1228 l 175 1335 l 132 1335 z m 57 1335 l 39 1228 l 82 1228 l 101 1335 z "},"ű":{"ha":250,"x_min":0,"x_max":0,"o":"m 0 856 l 0 107 b 107 0 0 47 47 0 b 214 107 167 0 214 47 l 214 963 l 125 963 l 125 125 b 107 107 125 115 117 107 b 89 125 97 107 89 115 l 89 963 l 0 963 z m 113 1017 l 157 1017 l 175 1124 l 132 1124 z m 57 1124 l 39 1017 l 82 1017 l 101 1124 z "},"Ų":{"ha":250,"x_min":0,"x_max":0,"o":"m 0 1178 l 0 108 b 54 15 0 68 22 33 b 47 -14 50 6 47 -4 b 108 -75 47 -47 74 -75 b 167 -28 136 -75 161 -56 l 125 -14 b 108 -32 125 -24 117 -32 b 90 -14 99 -32 90 -24 b 100 1 90 -7 94 -1 l 107 1 b 214 108 167 1 214 49 l 214 1178 l 125 1178 l 125 126 b 107 108 125 117 117 108 b 89 126 97 108 89 117 l 89 1178 z "},"ų":{"ha":250,"x_min":0,"x_max":0,"o":"m 0 964 l 0 108 b 54 15 0 68 22 33 b 47 -12 50 7 47 -3 b 108 -74 47 -46 75 -74 b 167 -26 136 -74 161 -54 l 125 -12 b 108 -31 125 -22 117 -31 b 90 -12 99 -31 90 -22 b 99 1 90 -7 93 -1 l 107 1 b 214 108 167 1 214 49 l 214 964 l 125 964 l 125 125 b 107 108 125 115 117 108 b 89 125 97 108 89 115 l 89 964 z "},"Ŵ":{"ha":358,"x_min":0,"x_max":0,"o":"m 215 0 b 322 107 275 0 322 47 l 322 1176 l 233 1176 l 233 125 b 215 107 233 115 225 107 l 199 107 l 199 1176 l 125 1176 l 125 107 l 89 107 l 89 1176 l 0 1176 l 0 0 z m 85 1228 l 136 1228 l 161 1274 l 188 1228 l 238 1228 l 181 1328 l 143 1328 z "},"ŵ":{"ha":358,"x_min":0,"x_max":0,"o":"m 215 0 b 322 107 275 0 322 47 l 322 963 l 233 963 l 233 125 b 215 107 233 115 225 107 l 199 107 l 199 963 l 125 963 l 125 107 l 89 107 l 89 963 l 0 963 l 0 0 z m 85 1021 l 136 1021 l 161 1067 l 188 1021 l 238 1021 l 181 1121 l 143 1121 z "},"Ŷ":{"ha":250,"x_min":0,"x_max":0,"o":"m 0 846 b 63 749 0 803 25 765 l 63 0 l 151 0 l 151 749 b 214 846 189 765 214 803 l 214 1176 l 125 1176 l 125 874 b 107 856 125 864 117 856 b 89 874 97 856 89 864 l 89 1176 l 0 1176 z m 69 1228 l 81 1228 l 107 1274 l 133 1228 l 183 1228 l 126 1328 l 88 1328 l 31 1228 z "},"ŷ":{"ha":250,"x_min":0,"x_max":0,"o":"m 0 -33 l 0 -106 b 107 -212 0 -165 47 -212 b 214 -106 167 -212 214 -165 l 214 965 l 125 965 l 125 108 l 104 108 b 89 126 96 110 89 118 l 89 965 l 0 965 l 0 108 b 107 1 0 50 49 1 l 125 1 l 125 -87 b 107 -106 125 -97 117 -106 b 89 -87 97 -106 89 -97 l 89 -33 z m 69 1022 l 81 1022 l 107 1067 l 133 1022 l 183 1022 l 126 1122 l 88 1122 l 31 1022 z "},"Ź":{"ha":250,"x_min":0,"x_max":0,"o":"m 0 107 l 0 0 l 214 0 l 214 722 l 125 722 l 125 107 l 89 107 l 89 721 l 214 846 l 214 1176 l 0 1176 l 0 883 l 89 883 l 89 1069 l 125 1069 l 125 883 l 0 758 z m 54 1257 l 85 1225 l 160 1301 l 129 1332 z "},"ź":{"ha":250,"x_min":0,"x_max":0,"o":"m 0 107 l 0 0 l 214 0 l 214 507 l 125 507 l 125 107 l 89 107 l 89 507 l 214 632 l 214 963 l 0 963 l 0 669 l 89 669 l 89 856 l 125 856 l 125 669 l 0 544 z m 54 1044 l 85 1014 l 160 1089 l 129 1119 z "},"Ż":{"ha":250,"x_min":0,"x_max":0,"o":"m 0 0 l 214 0 l 214 722 l 125 722 l 125 107 l 89 107 l 89 721 l 214 846 l 214 1176 l 0 1176 l 0 883 l 89 883 l 89 1069 l 125 1069 l 125 883 l 0 758 z m 135 1254 l 135 1310 l 79 1310 l 79 1254 z "},"ż":{"ha":250,"x_min":0,"x_max":0,"o":"m 0 0 l 214 0 l 214 507 l 125 507 l 125 107 l 89 107 l 89 507 l 214 632 l 214 963 l 0 963 l 0 669 l 89 669 l 89 856 l 125 856 l 125 669 l 0 544 z m 135 1040 l 135 1096 l 79 1096 l 79 1040 z "}}}
